<svg xmlns="http://www.w3.org/2000/svg" width="412" height="130" viewBox="0 0 412 130" version="1.1">
	<path d="M 4.893 2.805 L 1.500 5.838 1.503 45.169 C 1.506 71.323, 1.938 87.888, 2.795 94.613 C 3.793 102.452, 3.816 105.309, 2.899 107.322 C 1.928 109.453, 2.011 110.369, 3.363 112.431 C 4.268 113.813, 5.502 117.319, 6.104 120.222 C 6.706 123.125, 7.874 126.566, 8.700 127.868 C 10.001 129.921, 10.754 130.162, 14.349 129.680 C 18.847 129.077, 23 125.376, 23 121.972 C 23 120.197, 23.760 120.067, 33.250 120.215 C 45.154 120.400, 52.199 118.966, 60.321 114.702 C 72.538 108.288, 77.957 98.365, 78.756 80.945 C 80.016 53.496, 66.597 29.782, 39.534 11.632 C 31.909 6.518, 18.750 1.002, 12.393 0.255 C 8.870 -0.159, 7.804 0.203, 4.893 2.805 M 287.405 2.104 C 284.880 4.892, 284.486 19.877, 285.856 60.980 C 286.415 77.745, 286.781 91.552, 286.669 91.664 C 286.557 91.776, 281.073 82.133, 274.483 70.233 C 254.859 34.803, 240.265 14.424, 232.093 11.039 C 224.540 7.910, 222.034 11.383, 222.019 25 C 222.014 30.225, 221.287 52.639, 220.403 74.809 C 218.876 113.140, 218.883 115.214, 220.554 117.059 C 222.664 119.391, 229.160 119.697, 231.292 117.565 C 233.777 115.080, 235.900 85.555, 235.964 52.606 L 236 33.712 239.386 38.147 C 248.454 50.023, 260.736 71.085, 276.420 101.655 C 280.132 108.890, 284.228 115.805, 285.522 117.021 C 286.914 118.328, 289.638 119.427, 292.188 119.711 C 295.904 120.124, 296.845 119.820, 299 117.514 L 301.500 114.837 301.139 60.669 C 300.904 25.375, 300.412 5.803, 299.726 4.500 C 297.177 -0.342, 290.752 -1.592, 287.405 2.104 M 366.500 0.962 C 353.240 3.822, 342.643 11.160, 339.327 19.778 C 338.238 22.611, 337.537 26.956, 337.577 30.638 C 337.752 46.951, 346.702 55, 370.287 60.055 C 384.321 63.064, 391.279 66.826, 394.595 73.200 C 396.586 77.027, 396.333 86.670, 394.114 91.556 C 391.926 96.372, 384.970 102.628, 380.779 103.549 C 375.446 104.720, 367.519 102.987, 357.439 98.448 C 352.008 96.001, 346.583 94, 345.385 94 C 342.212 94, 336.731 100.548, 337.574 103.332 C 338.681 106.990, 342.148 109.966, 349.480 113.549 C 364.019 120.654, 380.417 122.005, 391.788 117.033 C 403.773 111.793, 410.962 98.088, 410.988 80.432 C 411.005 69.296, 408.914 62.861, 403.529 57.476 C 397.554 51.502, 393.031 49.438, 378.248 45.944 C 371.236 44.286, 363.713 41.927, 361.530 40.700 C 351.973 35.332, 350.478 26.514, 357.988 19.810 C 366.615 12.109, 377.682 11.155, 390.928 16.968 C 401.091 21.429, 404.306 21.829, 406.367 18.887 C 410.375 13.164, 406.560 6.512, 397.208 2.920 C 390.867 0.485, 373.769 -0.605, 366.500 0.962 M 134.828 1.967 C 109.376 2.495, 109.135 2.521, 106.578 4.924 C 103.224 8.078, 103.050 13.221, 106.223 15.443 C 108 16.689, 111.524 17, 123.836 17 L 139.228 17 138.583 44.250 C 138.229 59.238, 138.306 81.707, 138.754 94.183 C 139.474 114.246, 139.784 117.104, 141.439 118.933 C 143.907 121.660, 149.324 121.676, 152.035 118.965 C 154.036 116.964, 154.066 116.076, 153.785 67.549 C 153.628 40.389, 153.874 17.793, 154.331 17.334 C 154.788 16.875, 162.363 16.275, 171.163 16 C 185.518 15.551, 187.310 15.300, 188.582 13.559 C 190.846 10.460, 190.402 4.395, 187.777 2.557 C 185.378 0.876, 186.652 0.890, 134.828 1.967 M 16.472 31.765 C 15.500 52.491, 17.898 100.600, 20.079 104.128 C 21.175 105.902, 36.826 106.489, 44.269 105.036 C 52.512 103.427, 59.616 100.304, 62.037 97.226 C 63.710 95.099, 64 93.149, 64 84.025 C 64 57.302, 51.857 35.932, 28.885 22.232 C 25.373 20.137, 21.308 17.909, 19.852 17.280 L 17.204 16.136 16.472 31.765" stroke="none" fill="black" fill-rule="evenodd"/>
</svg>