<svg xmlns="http://www.w3.org/2000/svg" width="412" height="130" viewBox="0 0 412 130" version="1.1">
	<path d="M 4.766 2.918 L 1.500 5.836 1.504 44.168 C 1.507 69.425, 1.953 86.218, 2.812 93.402 C 3.823 101.843, 3.851 104.945, 2.940 107.146 C 1.971 109.485, 2.050 110.427, 3.386 112.467 C 4.280 113.830, 5.649 117.683, 6.430 121.029 C 8.330 129.174, 9.415 130.342, 14.457 129.666 C 19.161 129.035, 23.408 124.911, 22.772 121.593 C 22.381 119.558, 22.664 119.510, 32.935 119.851 C 45.353 120.263, 52.279 118.965, 60.321 114.719 C 67.492 110.933, 73.219 104.588, 76.181 97.147 C 78.098 92.332, 78.435 89.584, 78.465 78.500 C 78.505 63.666, 76.584 55.538, 70.310 44 C 60.337 25.658, 40.358 9.176, 19.325 1.940 C 11.541 -0.738, 8.640 -0.543, 4.766 2.918 M 288.072 1.928 C 284.523 5.477, 284.387 12.335, 286.582 77 L 287.143 93.500 281.489 83.050 C 262.126 47.261, 250.559 28.905, 240.748 18.400 C 234.477 11.685, 230.436 9.423, 226.484 10.415 C 222.759 11.350, 222 14.549, 222 29.321 C 222 36.576, 221.309 58.881, 220.464 78.887 C 219.026 112.927, 219.036 115.382, 220.619 117.131 C 222.663 119.390, 229.196 119.661, 231.283 117.574 C 232.067 116.790, 233.021 113.099, 233.403 109.371 C 234.455 99.102, 235.944 63.276, 235.974 47.520 L 236 33.540 241.467 41.020 C 249.111 51.479, 259.921 69.898, 272.915 94.601 C 279.020 106.207, 284.928 116.530, 286.045 117.541 C 287.375 118.744, 289.684 119.400, 292.727 119.440 C 296.944 119.494, 297.604 119.173, 299.799 116 C 302.111 112.658, 302.193 112.005, 301.615 101.500 C 301.282 95.450, 301.007 71.522, 301.005 48.327 L 301 6.153 298.411 3.077 C 295.360 -0.550, 291.031 -1.031, 288.072 1.928 M 365.317 1.436 C 352.780 4.297, 343.501 10.517, 339.866 18.500 C 337.347 24.031, 337.358 36.989, 339.886 42.556 C 343.601 50.735, 353.019 56.355, 368.420 59.583 C 389.093 63.916, 396.301 69.581, 396.274 81.477 C 396.246 93.749, 387.019 104, 376.001 104 C 371.234 104, 362.077 101.077, 353.880 96.939 C 346.742 93.336, 344.999 93.288, 341.077 96.589 C 334.851 101.827, 337.612 107.770, 348.893 113.417 C 358.530 118.241, 363.950 119.478, 375.500 119.489 C 385.526 119.499, 387.003 119.253, 392.182 116.710 C 405.170 110.332, 411.951 95.719, 410.762 76.669 C 410.121 66.392, 406.911 59.419, 400.728 54.871 C 394.849 50.547, 391.238 49.134, 377.767 45.886 C 358.824 41.320, 353.500 37.572, 353.500 28.805 C 353.500 24.130, 353.807 23.499, 357.811 19.946 C 366.648 12.103, 377.600 11.119, 390.928 16.968 C 401.091 21.429, 404.306 21.829, 406.367 18.887 C 410.423 13.096, 406.022 5.951, 396.295 2.534 C 389.706 0.220, 373.212 -0.365, 365.317 1.436 M 142.662 1.968 L 108.824 2.500 106.412 5.306 C 103.333 8.888, 103.249 13.361, 106.223 15.443 C 108.002 16.690, 111.538 17, 123.973 17.001 L 139.500 17.001 139.500 66.896 C 139.500 115.342, 139.558 116.855, 141.494 118.995 C 143.119 120.789, 144.226 121.099, 147.459 120.665 C 154.401 119.734, 154.192 121.338, 153.530 74 C 153.203 50.625, 153.288 28.125, 153.718 24 L 154.500 16.500 168.500 16.257 C 176.200 16.123, 183.481 15.785, 184.680 15.505 C 188.207 14.683, 190 12.149, 190 7.985 C 190 2.967, 187.282 0.917, 181.027 1.218 C 178.537 1.338, 161.273 1.675, 142.662 1.968 M 16.450 25.775 C 15.545 37.784, 16.459 74.084, 18.101 91.336 C 19.575 106.835, 19.082 106.428, 35.500 105.707 C 48.483 105.136, 57.638 102.407, 61.345 98.002 C 67.125 91.132, 64.921 67.692, 57.023 52.046 C 49.725 37.587, 34.769 23.335, 20.841 17.565 L 17.183 16.050 16.450 25.775" stroke="none" fill="black" fill-rule="evenodd"/>
</svg>