<svg id="icon" xmlns="http://www.w3.org/2000/svg" viewBox="0 0 75 75"><title>action-like</title><path d="M60.34,7.9c-7-3.31-13.68-2.44-19.95,2.56-1.54,1.23-3.44,2.18-5.92-.08a16.86,16.86,0,0,0-9.77-4.22A19.47,19.47,0,0,0,22.56,6C15.39,6,8.94,10.09,5.39,17A19.42,19.42,0,0,0,8.32,38.45c2.32,2.58,4.72,5.17,7,7.68l3,3.2L23,54.42c4,4.36,8.17,8.88,12.28,13.28a3.6,3.6,0,0,0,2.25,1.35,1.66,1.66,0,0,0,1.3-.63,105.63,105.63,0,0,0,7.86-8.6,2.27,2.27,0,0,0-3.39-3,23.47,23.47,0,0,0-3,3.08,3.85,3.85,0,0,1-2.79,1.69,3.7,3.7,0,0,1-2.85-1.5c-3.85-4.24-7.8-8.52-11.62-12.66S15.68,39.4,12,35.35A14.2,14.2,0,0,1,9.69,19c2.83-5.53,8.52-8.77,14.15-8.09,6.34.78,10.78,4.6,12.82,11,.24.76,1.16,3.18,3,2.69a2.16,2.16,0,0,0,1.4-1,3.94,3.94,0,0,0,.06-3c-.39-1.29-1-3.45,1-5.35,3.94-3.75,8.32-5.12,13-4.08a14.73,14.73,0,0,1,11.08,9.7,15,15,0,0,1-3.29,14.58c-1.52,1.73-3.11,3.43-4.65,5.08-1.25,1.34-2.51,2.68-3.73,4-2.27,2.52-1.12,3.61-.57,4.14s1.68,1.6,4-.83,4.84-5.19,7.17-7.74l1.21-1.33c3.47-3.8,5.17-8.3,5.33-14.17A18.89,18.89,0,0,0,60.34,7.9Z" fill="#b3ab88"/><path d="M30.49,41.78A2.1,2.1,0,0,1,29,41.12L20.6,32.24a2.1,2.1,0,1,1,3.06-2.88L32,38.25a2.1,2.1,0,0,1-1.53,3.54Z" fill="#b3ab88"/></svg>