<svg id="icon" xmlns="http://www.w3.org/2000/svg" viewBox="0 0 75 75"><title>action-report</title><path d="M59.09,55.75c-.57-3.37-1.07-7.32-2-11.17a3.86,3.86,0,0,1,1.44-4.25c2.64-2.41,5.12-5,7.73-7.44a6,6,0,0,0,1.78-6.84c-.9-2.52-3-3.64-5.56-4a84.71,84.71,0,0,0-9.17-1.21c-3-.09-4.47-1.48-5.55-4.08C46.57,13.82,45,11,43.57,8.18a5.76,5.76,0,0,0-5.48-3.55,5.89,5.89,0,0,0-5.71,3.67c-1.63,3.29-3.33,6.54-4.86,9.88A3.87,3.87,0,0,1,24,20.64c-3.55.36-7.08.91-10.61,1.43-2.56.37-4.57,1.56-5.48,4.12a5.9,5.9,0,0,0,1.73,6.59c1.86,1.83,3.73,3.65,5.63,5.44,1.23,1.16,2.6,1.39,3.8,0s.74-2.51-.36-3.59c-1.72-1.7-3.47-3.37-5.19-5.07-1.23-1.21-1.35-2.12.7-2.42,4.2-.61,8.38-1.34,12.58-1.85a4.77,4.77,0,0,0,4.22-3c1.7-3.68,3.56-7.29,5.4-10.9.37-.73.58-1.86,1.6-1.81s1.23,1.12,1.61,1.88C41.37,15,43.2,18.38,44.77,21.9a5.24,5.24,0,0,0,4.81,3.45c3.74.34,7.47.91,11.17,1.54.87.15,2.17,0,2.54,1s-.82,1.62-1.46,2.26C59.16,32.84,56.5,35.51,53.7,38a5.09,5.09,0,0,0-1.83,5.6c.87,3.55,1.33,7.22,1.89,10.84.15,1,1,2.15-.21,2.94-1,.67-1.81-.31-2.62-.72q-4.65-2.35-9.23-4.82c-1.61-.87-3.07-.85-3.92.89-.77,1.58,0,2.77,1.5,3.54C43,58.21,46.6,60.23,50.33,62,54.72,64.13,59.22,61.12,59.09,55.75Z" fill="#b3ab88"/><path d="M24.24,41.1c.07-2.89,1.52-4.84,4.47-4.93s4.66,1.77,4.72,4.65c.13,6.3-.62,12.62-.75,18.92-.06,2.63-1.42,4.39-3.72,4.43-2.5,0-3.86-1.74-4-4.64C24.88,56.38,24.17,44.09,24.24,41.1Z" fill="#ffd2cf"/><circle cx="28.84" cy="68.36" r="3" fill="#ffd2cf"/></svg>