<svg id="icon" xmlns="http://www.w3.org/2000/svg" viewBox="0 0 65 65"><title>action-addEdit</title><path d="M7,24.68a6.61,6.61,0,0,0,2.13,4.48C16,35.9,22.81,42.57,29.41,49.48c3,3.11,4.24,4.07,7.09,5a64.91,64.91,0,0,0,8.07,2c2,.37,2.83-.4,2.44-2.31-.66-3.23-1.44-6.43-2.21-9.64a5,5,0,0,0-1.57-2.27Q31.54,30.6,19.87,18.94c-3.34-3.32-5.8-3.31-9.12,0-.78.77-1.57,1.54-2.33,2.34A5.29,5.29,0,0,0,7,24.68ZM38,47.89a6.16,6.16,0,0,1,2.22-1.64c.91-.4,1.59-.48,1.84.78.3,1.49.7,3,1.09,4.42.23.83.11,1.33-1.13,1.21l-2.73-.6C36.14,51.37,35.85,50.43,38,47.89ZM15.92,29.52c1.61-1.6,3.15-3.28,4.92-5.14L31.72,35.32c2.14,2.15,4.28,4.32,6.45,6.44.8.78,1.21,1.37-.09,2.06a8.94,8.94,0,0,0-3.77,4c-.5,1-1,.92-1.71.22q-8.31-8.34-16.66-16.65C15.24,30.68,15.22,30.21,15.92,29.52Zm-3.48-7.89.54-.53c2-1.91,3-1.84,4.77.23.61.69.73,1.14,0,1.86-1.64,1.58-3.17,3.25-4.83,5C9.33,25,9.32,24.72,12.44,21.63Z" fill="#757159"/><path d="M45.88,18.69c-1.59,0-3.19,0-4.78,0-1.26,0-2.07-.45-2-1.74,0-1.13.73-1.68,1.93-1.66q5,.06,10,0c1.19,0,1.93.54,2,1.65,0,1.27-.81,1.78-2.06,1.75C49.21,18.66,47.55,18.69,45.88,18.69Z" fill="#b3ab88"/><path d="M47.69,17.12c0,1.59,0,3.19,0,4.78,0,1.26-.45,2.07-1.74,2-1.13,0-1.68-.73-1.66-1.93q.06-5,0-10c0-1.19.54-1.93,1.65-2,1.27,0,1.78.81,1.75,2.06C47.66,13.79,47.69,15.45,47.69,17.12Z" fill="#b3ab88"/></svg>