<svg id="icon" xmlns="http://www.w3.org/2000/svg" viewBox="0 0 65 65"><title>action-addContact</title><path d="M30.14,32.56c-1.94,0-3.88,0-5.82,0-1.53,0-2.52-.55-2.48-2.12,0-1.38.88-2,2.35-2q6.07.08,12.15,0c1.45,0,2.35.66,2.39,2,0,1.55-1,2.16-2.51,2.13C34.19,32.52,32.17,32.56,30.14,32.56Z" fill="#b3ab88"/><path d="M32.34,30.64c0,1.94,0,3.88,0,5.82,0,1.53-.55,2.52-2.12,2.48-1.38,0-2-.88-2-2.35q.08-6.07,0-12.15c0-1.45.66-2.35,2-2.39,1.55,0,2.16,1,2.13,2.51C32.3,26.59,32.34,28.62,32.34,30.64Z" fill="#b3ab88"/><path d="M48.06,21.13a9.46,9.46,0,0,1-3.42-2.73,18.39,18.39,0,0,0-14.34-6.9,19.77,19.77,0,0,0-9.38,2.45,18.61,18.61,0,0,0-8.67,21.81,15.57,15.57,0,0,1,.63,7.08c-.37,2.88-.14,4.55.75,5.56a3.86,3.86,0,0,0,3.07,1.1,16.85,16.85,0,0,0,3.12-.37c.51-.1,1-.23,1.51-.36a11.64,11.64,0,0,1,2.9-.5,4.94,4.94,0,0,1,1.12.12,22.58,22.58,0,0,0,5,.6,18,18,0,0,0,8.15-1.92l.27-.15a2,2,0,0,1,.67-.28,15,15,0,0,0,1.54.07c1,0,1.91-.07,2.83-.15s1.84-.14,2.75-.14a11.25,11.25,0,0,1,3,.36,4.59,4.59,0,0,0,1.21.17,3.8,3.8,0,0,0,3-1.34,4.09,4.09,0,0,0,.86-3.37,8.72,8.72,0,0,1,.48-5.11,7.42,7.42,0,0,0,.45-2.85c0-.25,0-.49,0-.71C55.62,27.88,52.86,23.35,48.06,21.13ZM15.68,35.06a14.9,14.9,0,0,1,1-12.15,15.11,15.11,0,0,1,9.83-7.51A16.89,16.89,0,0,1,30.3,15c7.08,0,13,4.87,14.85,12.12a10.52,10.52,0,0,1,.22,2.15c0,.37,0,.73.05,1.09A15.3,15.3,0,0,1,30.31,45.57a15.53,15.53,0,0,1-3-.3A13,13,0,0,0,24.69,45a26.94,26.94,0,0,0-4.89.59l-.44.08A15.8,15.8,0,0,1,16.9,46c-.36,0-.59-.05-.68-.16-.31-.36-.07-1.94.07-2.88A15.49,15.49,0,0,0,15.68,35.06Zm35.51,7.35a1.4,1.4,0,0,1-.09,1s-.1.12-.35.12a1.6,1.6,0,0,1-.43-.07,14.82,14.82,0,0,0-4.09-.58,16.66,16.66,0,0,0-2.43.19,19.4,19.4,0,0,0,4.56-17.49,8.9,8.9,0,0,1,3.88,8.19c0,.19,0,.38-.05.57a4.5,4.5,0,0,1-.33,1.67A9.43,9.43,0,0,0,51.19,42.42Z" fill="#757159"/></svg>