<svg id="icon" xmlns="http://www.w3.org/2000/svg" viewBox="0 0 65 65"><title>action-delete</title><path d="M52.2,22.19c-.19-1.52-1.37-1.46-2.5-1.44-2.45,0-4.9,0-7.35.07-1.42,0-2.22-.1-2.45-1.93a7.3,7.3,0,0,0-7.27-6.18,7.31,7.31,0,0,0-7.52,6.18c-.23,1.82-1,2-2.46,1.92-2.7-.07-5.41-.06-8.11-.07a1.54,1.54,0,0,0-1.75,1.45c-.11.87.25,1.64,1.11,1.72,2.85.28,3,2.27,3,4.41,0,5.58.21,11.17-.06,16.73-.26,5.36,2.79,7.55,7.09,7.2,2.85-.23,14.38-.23,17.23,0,4.58.37,7.31-2.19,7.09-6.95-.26-5.48-.07-18,0-18.76.16-1.26.69-2.27,2.13-2.46C51.49,24,52.37,23.52,52.2,22.19Zm-23.63-3.9A4.2,4.2,0,0,1,33,16a4.31,4.31,0,0,1,3.73,3c.29,1,.31,1.86-1.17,1.78-1-.06-4.73,0-5.58,0C28,20.69,27.64,20,28.57,18.29ZM45.2,25.78c-.25,6.08-.12,12.17-.12,18.25,0,4.88-.28,5.15-5.16,5.15-5.41,0-10.82,0-16.23,0-3,0-3.73-.72-3.75-3.76,0-5.16,0-14.49,0-19.64,0-1.93.93-1.91,1.49-1.89,7.35.24,14.7.29,22,0C45,23.8,45.27,24.05,45.2,25.78Z" fill="#757159"/><path d="M38.16,30.65a1.61,1.61,0,1,0-3.22.05q0,4.79,0,9.59c0,1,.44,1.81,1.64,1.8s1.56-.83,1.59-1.85c0-1.51,0-3,0-4.54C38.17,34,38.18,32.33,38.16,30.65Z" fill="#b3ab88"/><path d="M30.08,35.5c0-1.51,0-3,0-4.54,0-1.18-.46-2-1.72-2-1.1,0-1.54.86-1.54,1.93,0,3.11,0,6.23,0,9.34,0,1,.36,1.84,1.58,1.86s1.62-.76,1.64-1.8c0-1.6,0-3.2,0-4.8Z" fill="#b3ab88"/></svg>