<svg id="icon" xmlns="http://www.w3.org/2000/svg" viewBox="0 0 75 75"><title>dateS</title><path d="M14.39,13c.62-1.39-.13-3.93,2.44-3.88s1.88,2.48,2.36,4.12H55.74c.65-1.56,0-4.23,2.73-4.11,2.28.1,1.88,2.23,2.18,3.7,6.74,2.07,7.42,3,7.42,10q0,17.45,0,34.91c0,6-2.13,8.11-8.14,8.12q-22.33,0-44.67,0c-6.11,0-8.3-2.26-8.32-8.42,0-1.5,0-3,0-4.5a2.06,2.06,0,0,1,2-2.25c1.52-.07,2.28.9,2.34,2.34.07,1.75.08,3.5,0,5.25-.09,2.26,1,3.18,3.17,3.18q23.08,0,46.17,0c2.24,0,3.07-1.11,3.06-3.28q-.07-18.58,0-37.16c0-2.44-1.13-3.24-3.47-3.23q-22.71.08-45.41,0c-2.62,0-3.55,1-3.51,3.55.09,6.88,0,13.76,0,20.64,0,1.69.48,3.9-2.12,4s-2.3-2.07-2.3-3.82q0-9.95,0-19.89C6.95,16.07,8.29,14.39,14.39,13Z" fill="#b3ab88"/></svg>