<svg id="icon" xmlns="http://www.w3.org/2000/svg" viewBox="0 0 125 41"><title>dateL</title><path d="M7.33,35.6c.38.86-.08,2.43,1.51,2.4S10,36.47,10.3,35.46H114.66c.4,1,0,2.61,1.68,2.53,1.41-.06,1.16-1.37,1.34-2.28,4.16-1.28,4.57-1.84,4.57-6.16q0-10.76,0-21.53c0-3.68-1.31-5-5-5C108.06,3,17.05,3,7.87,3,4.1,3,2.75,4.41,2.74,8.2c0,.93,0,1.85,0,2.78A1.27,1.27,0,0,0,4,12.37c.94,0,1.41-.56,1.44-1.45,0-1.08,0-2.16,0-3.24-.06-1.39.64-2,2-2h110.3c1.38,0,1.89.68,1.89,2q0,11.46,0,22.92c0,1.51-.7,2-2.14,2-9.34,0-100.5,0-109.84,0C6,32.66,5.43,32,5.45,30.46c.06-4.24,0-8.49,0-12.73,0-1,.3-2.41-1.31-2.46s-1.42,1.28-1.42,2.36q0,6.13,0,12.27C2.74,33.72,3.57,34.76,7.33,35.6Z" fill="#b3ab88"/></svg>