<svg id="icon" xmlns="http://www.w3.org/2000/svg" viewBox="0 0 100 100"><title>fontZoomIn</title><path d="M73.1,58.59c3.42.51,5,2.5,4.86,5.53-.12,2.86.49,4.35,3.79,4.07,3-.24,5.42,1.09,5.57,4.36.16,3.54-2.25,5.12-5.48,5s-4,1.08-3.89,4.07-1.47,5.3-4.66,5.33-4.92-2.17-4.78-5.22c.16-3.39-1.3-4.25-4.4-4.2-2.81,0-4.87-1.57-4.93-4.53-.07-3.26,2.08-5,5.13-4.76,3.41.22,4.25-1.2,4.21-4.31A5,5,0,0,1,73.1,58.59Z" fill="#757159"/><path d="M73.24,47.17l-.15-.38-.58-1.51-.17-.44L51.16,25.15c-3.75-3.48-7.63-7.08-11.41-10.64a5.38,5.38,0,0,0-9.31,3.43l-.9,8.28Q28.2,38.56,26.88,50.91L22.87,88a5.25,5.25,0,0,0,4.66,5.76l.53,0A5.22,5.22,0,0,0,33.25,89c0-.18,1.63-18.05,2.39-23.25a7.4,7.4,0,0,1,2.19-3.37c.65-.65,4.54-3.05,6.87-4.49l1.89-1.17c2.52-1.57,4.15-2.56,6.45-2.52,3.34,0,6.7-.13,10-.26l3.49-.14c4.54-.17,6.63-2.08,6.77-6.22Zm-18.93-3.9c-4.46-.31-7.54.94-15,6.09a15.83,15.83,0,0,1-2,1.21l.06-.3c.07-.32.13-.63.18-1,.41-3,1.15-10,1.74-15.57.22-2.07.41-3.89.55-5.12,1.53,1.41,4.43,4,7.48,6.63s6.09,5.34,7.7,6.83l.5.45a12.08,12.08,0,0,1,1,.92,10.26,10.26,0,0,1-1.44-.1Z" fill="#fff9db"/></svg>