<svg id="icon-novel" data-name="icon-novel" xmlns="http://www.w3.org/2000/svg" viewBox="0 0 50 50"><title>icon-novel</title><ellipse cx="30.5" cy="34.5" rx="15.5" ry="13.82" fill="#fff9db"/><path d="M40.29,37.45a1.14,1.14,0,0,1-.28,0,31.56,31.56,0,0,0-15.65,0,1.14,1.14,0,0,1-1.43-1.11V15.44a1.14,1.14,0,0,1,.86-1.11,33.87,33.87,0,0,1,16.79,0,1.14,1.14,0,0,1,.86,1.11V36.3a1.14,1.14,0,0,1-1.14,1.14Zm-8.11-3.31a33.83,33.83,0,0,1,7,.72V16.34a31.56,31.56,0,0,0-13.93,0V34.86A33.83,33.83,0,0,1,32.18,34.14Z" fill="#b3ab88"/><path d="M27.41,21.14a.93.93,0,0,1-.23-1.83,18.24,18.24,0,0,1,9,0,.93.93,0,1,1-.46,1.8,16.36,16.36,0,0,0-8.13,0A.93.93,0,0,1,27.41,21.14Z" fill="#b3ab88"/><path d="M36,23.72a.93.93,0,0,1-.23,0,16.38,16.38,0,0,0-8.13,0,.93.93,0,0,1-.46-1.8,18.24,18.24,0,0,1,9,0A.93.93,0,0,1,36,23.72Z" fill="#b3ab88"/><path d="M27.41,26.29a.93.93,0,0,1-.23-1.83,18.24,18.24,0,0,1,9,0,.93.93,0,1,1-.46,1.8,16.38,16.38,0,0,0-8.13,0A.93.93,0,0,1,27.41,26.29Z" fill="#b3ab88"/><path d="M36,28.87a.93.93,0,0,1-.23,0,16.38,16.38,0,0,0-8.13,0,.93.93,0,0,1-.46-1.8,18.24,18.24,0,0,1,9,0A.93.93,0,0,1,36,28.87Z" fill="#b3ab88"/><path d="M27.41,31.68a.93.93,0,0,1-.3-1.81,12.6,12.6,0,0,1,6.18-.51A.93.93,0,0,1,33,31.19a10.73,10.73,0,0,0-5.27.44A.92.92,0,0,1,27.41,31.68Z" fill="#b3ab88"/><path d="M24.07,37.45a1.15,1.15,0,0,1-.47-.1,18.57,18.57,0,0,0-15.28,0,1.14,1.14,0,0,1-1.62-1V15.44a1.15,1.15,0,0,1,.67-1,20.87,20.87,0,0,1,17.17,0,1.15,1.15,0,0,1,.67,1V36.3a1.14,1.14,0,0,1-1.14,1.14Zm-8.11-4a20.86,20.86,0,0,1,7,1.2V16.2A18.58,18.58,0,0,0,9,16.2V34.61A20.86,20.86,0,0,1,16,33.41Z" fill="#b3ab88"/><path d="M20,31.4a.92.92,0,0,1-.38-.08,9.51,9.51,0,0,0-7.83,0A.93.93,0,1,1,11,29.63a11.37,11.37,0,0,1,9.35,0A.93.93,0,0,1,20,31.4Z" fill="#b3ab88"/><path d="M19.78,22.67a.92.92,0,0,1-.38-.08,9.5,9.5,0,0,0-7.83,0,.93.93,0,1,1-.76-1.69,11.36,11.36,0,0,1,9.35,0,.93.93,0,0,1-.38,1.77Z" fill="#b3ab88"/><path d="M19.78,25.58a.92.92,0,0,1-.38-.08,9.5,9.5,0,0,0-7.83,0,.93.93,0,1,1-.76-1.69,11.36,11.36,0,0,1,9.35,0,.93.93,0,0,1-.38,1.77Z" fill="#b3ab88"/><path d="M11.19,28.76A.93.93,0,0,1,10.86,27a11.73,11.73,0,0,1,6.48-.58A.93.93,0,1,1,17,28.2a9.86,9.86,0,0,0-5.45.49A.93.93,0,0,1,11.19,28.76Z" fill="#b3ab88"/><path d="M11.19,20.23a.93.93,0,0,1-.48-1.72,7.3,7.3,0,0,1,4.1-1.09.93.93,0,0,1-.1,1.85,5.53,5.53,0,0,0-3.05.82A.92.92,0,0,1,11.19,20.23Z" fill="#b3ab88"/><path d="M42.68,35.63H40.53a.62.62,0,0,1-.62-.62V26.18a.62.62,0,0,1,.62-.62h2.15a.62.62,0,0,1,.62.62V35A.62.62,0,0,1,42.68,35.63Zm-1.53-1.24h.91V26.8h-.91Z" fill="#b3ab88"/><path d="M42.68,32.68H40.53a.62.62,0,0,1,0-1.24h2.15a.62.62,0,0,1,0,1.24Z" fill="#b3ab88"/><path d="M42.68,29.74H40.53a.62.62,0,0,1,0-1.24h2.15a.62.62,0,0,1,0,1.24Z" fill="#b3ab88"/></svg>