<svg id="icon" xmlns="http://www.w3.org/2000/svg" viewBox="0 0 35 35"><title>menu-Contact</title><path d="M27.81,14.49l0-2.32c4.08.44,5.44,1.8,5.5,5.66.06,4.1,0,8.21,0,12.31,0,1.26-.13,2.43-1.41,3s-2.1-.25-2.83-1A5,5,0,0,0,25,30.66c-4.21.08-8.42.06-12.63,0-3.41,0-5.08-1.75-5.16-5.21,0-1.62,0-3.24,0-4.86.72-.57,1.54-.35,2.34-.31,0,1.51,0,3,0,4.53.07,2.84.61,3.43,3.4,3.47,3.88.05,7.76,0,11.64,0,1.85,0,3.63-.07,5.13,1.37.88.84,1.27.27,1.27-.76,0-3.88,0-7.76,0-11.64C30.93,15.22,29.74,14.42,27.81,14.49Z" fill="#fff9db"/><path d="M7.15,20.6c-1.39.63-2.18,2.84-4.1,2C1,21.6,1.95,19.5,1.89,17.9c-.13-3.67-.07-7.35,0-11S3.47,1.75,7,1.71q7.78-.07,15.57,0c3.46,0,5,1.71,5.09,5.27,0,1.73,0,3.46.07,5.19l0,2.32c-.41,4.44-1.7,5.65-6.07,5.69L9.49,20.3C8.69,20.25,7.86,20,7.15,20.6ZM14.72,4c-2.59,0-5.19,0-7.78,0C5,4,4.15,4.84,4.16,6.74c0,3.78,0,7.57,0,11.35,0,1.61.49,1.67,1.56.71a5,5,0,0,1,3.67-.94c4.22,0,8.43,0,12.65,0,2.87,0,3.33-.52,3.38-3.45,0-2.49.06-5,0-7.46C25.33,4.63,24.81,4.1,22.5,4,19.91,4,17.31,4,14.72,4Z" fill="#b3ab88"/></svg>