<svg id="icon" xmlns="http://www.w3.org/2000/svg" viewBox="0 0 35 35"><title>menu-Member</title><path d="M15.77,25.54a1.15,1.15,0,0,1-1,1.17,10.83,10.83,0,0,1-2.25.08c-1.23-.05-1.8.48-1.69,1.72a4.82,4.82,0,0,1,0,.65c0,1,.27,2.52-1.22,2.49S8.4,30.09,8.49,29.1c.18-1.89-.64-2.52-2.41-2.31a4.58,4.58,0,0,1-1.59-.1,1.09,1.09,0,0,1-1-1.11c0-.62.5-.92,1-1.07a2.2,2.2,0,0,1,1-.07c2.48.45,3.32-.64,3-3-.13-.87,0-1.91,1.18-1.89s1.28,1.07,1.15,1.93c-.39,2.48.65,3.34,3,3C14.72,24.31,15.58,24.48,15.77,25.54Z" fill="#fff9db"/><path d="M16.83,1.8a8.48,8.48,0,0,1,7.33,4.7,8.35,8.35,0,0,1-.6,9.18c-1.46,2.17-1.46,2.2.75,3.6A15.05,15.05,0,0,1,31.4,30.34a6.67,6.67,0,0,1,0,1.92,1.07,1.07,0,0,1-1.14.94,1,1,0,0,1-.89-.81c-.08-.31-.08-.64-.13-1-1.41-8-4.94-11.19-13.17-12.08C10.87,18.81,7.51,15,7.78,10A8.78,8.78,0,0,1,16.83,1.8Zm6.07,8.72A6.42,6.42,0,1,0,10,10.65a6.42,6.42,0,1,0,12.85-.13Z" fill="#b3ab88"/></svg>