<svg id="icon" xmlns="http://www.w3.org/2000/svg" viewBox="0 0 100 100"><title>signUp</title><path d="M40.68,91.92c-10.18,0-18.5,0-26.82,0a8.35,8.35,0,0,1-3-.44c-2.87-1.15-4-3.06-3.24-6.7A44,44,0,0,1,10.48,75a27.16,27.16,0,0,1,9.68-11.37c3.21-2.17,6.32-4.52,10.07-5.75a1.5,1.5,0,0,0,.2-2.67,21.22,21.22,0,0,1-6-7,26.21,26.21,0,0,1-3.86-12.46,23.6,23.6,0,0,1,1.62-10.4C24.59,19.9,28,15.11,33.43,12A32.76,32.76,0,0,1,45.35,8.16a20.64,20.64,0,0,1,7.45.72C60.49,10.75,66.6,15,70.29,22.11c2.56,4.91,4,10.35,3,15.92-1,6-3.39,11.6-8.05,15.84A34.5,34.5,0,0,1,60,57.66c-1.48.9-3.43.14-4.78-1.58s-1.41-2.89,0-4.55a18.84,18.84,0,0,1,3-2.9,16.56,16.56,0,0,0,6.88-13.78,16.86,16.86,0,0,0-7.82-15c-3.11-2.09-6.48-3.52-10.12-3.43a18.62,18.62,0,0,0-16.72,11,20.86,20.86,0,0,0-1.27,10.38c.58,4.18,5,9.34,6.82,11.11,1.39,1.39,3.71,3.6,3.83,4.24.48,2.59.23,3.84-.15,7.79-.18,1.85-1.82,2.71-3.46,3.47-3.31,1.53-6.61,3.1-9.77,4.91A21.11,21.11,0,0,0,16.6,82.1c-.29,1,.11,1.42,1.25,1.5.58,0,1.15,0,1.73,0,14.79,0,29.58,0,44.37,0a46.86,46.86,0,0,0,7.47-.8A3.15,3.15,0,0,0,74,80a14.07,14.07,0,0,0,0-2.07c0-2.62-.68-2.62-2.22-2.61-2.66,0-5.31,0-8,0s-4.27-1.5-4.37-3.78A4.11,4.11,0,0,1,63.61,67c1.84-.13,3.7,0,5.54,0,.92,0,1.85,0,2.77,0,1.65-.08,2-.44,2.12-2,.06-1.38.06-2.77,0-4.16a7.7,7.7,0,0,1,.91-4c1.5-2.89,2.31-3.38,5.43-3a2.85,2.85,0,0,1,2.69,2.62c.06.9-.68,2.94-.61,4.35a46.84,46.84,0,0,0,0,4.84c0,.39-.06,1.38,1.4,1.34,1,0,6.7,0,8,0,3.09.06,4.7,1.79,4.46,4.76a4,4,0,0,1-3.58,3.53c-2.66.07-5.32,0-8,0-1.87,0-2.21.42-2.31,2.22,0,.35,0,3.06,0,3.32-.12,2.17-.78,3.46-2.59,6a7.59,7.59,0,0,1-3.38,2.73,28.58,28.58,0,0,1-6.9,1.75C59.3,92.61,49,91.44,40.68,91.92Z" fill="#757159"/></svg>