<svg id="icon" xmlns="http://www.w3.org/2000/svg" viewBox="0 0 50 50"><title>temp-storage</title><ellipse cx="30.5" cy="34.5" rx="15.5" ry="13.82" fill="#fff9db"/><path d="M37,42.5H13a1.71,1.71,0,0,1-1.71-1.71V9.21A1.71,1.71,0,0,1,13,7.5H37a1.71,1.71,0,0,1,1.71,1.71V40.79A1.71,1.71,0,0,1,37,42.5ZM14.68,39.09H35.32V10.91H14.68Z" fill="#b3ab88"/><path d="M29.82,18.58H20.18a1.84,1.84,0,1,1,0-3.67h9.65a1.84,1.84,0,1,1,0,3.67Z" fill="#b3ab88"/><path d="M29.82,19.26H20.18a1.84,1.84,0,1,1,0-3.67h9.65a1.84,1.84,0,1,1,0,3.67Z" fill="#b3ab88"/><path d="M24.95,34.18c1-.13,1.43.28,1.43,1.33S26,36.93,25,36.92s-1.36-.31-1.36-1.29S23.83,34,24.95,34.18Z" fill="#b3ab88"/></svg>