<svg xmlns="http://www.w3.org/2000/svg" width="1068" height="1067" viewBox="0 0 1068 1067" version="1.1">
	<path d="M 133.881 400.793 C 130.657 402.478, 127.451 405.157, 125.805 407.543 L 123.077 411.500 121.911 452 C 121.270 474.275, 121.030 504.425, 121.377 519 C 121.959 543.414, 124.270 585.404, 125.422 592.500 C 125.690 594.150, 126.428 600.456, 127.061 606.513 C 128.174 617.160, 128.139 617.651, 125.988 621.296 C 123.219 625.989, 123.804 629.874, 127.998 634.651 C 129.649 636.531, 131 638.974, 131 640.079 C 131 641.927, 132.553 649.222, 135.173 659.679 C 137.418 668.638, 146.175 671.529, 156.047 666.570 C 164.513 662.318, 167.615 657.601, 166.457 650.744 L 165.807 646.899 173.654 647.700 C 177.969 648.140, 188.700 648.432, 197.500 648.348 C 211.180 648.219, 214.950 647.820, 223.500 645.597 C 239.461 641.449, 256.420 632.232, 263.500 623.859 C 272.383 613.353, 277.041 604.623, 280.553 591.898 C 284.132 578.930, 285.046 555.319, 282.561 540 C 278.770 516.631, 271.561 497.416, 259.487 478.500 C 247.614 459.899, 225.413 438.279, 203.032 423.521 C 184.842 411.527, 153.140 398, 143.223 398 C 140.793 398, 137.134 399.094, 133.881 400.793 M 710.115 399.154 C 708.253 399.689, 706.196 400.661, 705.544 401.314 C 701.406 405.453, 698.898 424.517, 699.622 446.325 C 699.844 453.021, 700.695 482.350, 701.512 511.500 C 702.329 540.650, 703.235 570.800, 703.524 578.500 L 704.051 592.500 702.032 589.500 C 700.922 587.850, 700.010 586.217, 700.007 585.872 C 700.003 585.526, 698.043 581.701, 695.652 577.372 C 693.261 573.042, 689.722 566.575, 687.788 563 C 685.854 559.425, 682.809 553.800, 681.022 550.500 C 679.235 547.200, 675.956 541.350, 673.736 537.500 C 667.183 526.135, 662.650 518.147, 656.424 507 C 653.200 501.225, 650.210 496.350, 649.781 496.167 C 649.351 495.983, 649 495.270, 649 494.581 C 649 493.059, 628.097 461.655, 619.673 450.522 C 612.044 440.440, 597.658 426.056, 591.724 422.578 C 585.617 418.999, 578.481 418.263, 574.462 420.797 C 569.189 424.122, 568.908 426.466, 568.001 474.680 C 567.544 498.979, 566.894 523.279, 566.556 528.680 C 565.491 545.717, 563.013 611.936, 562.926 625.670 C 562.875 633.929, 563.277 639.650, 564.007 641.014 C 565.803 644.369, 573.467 647.345, 578.526 646.651 C 583.974 645.905, 587.088 644.421, 589.191 641.572 C 592.685 636.837, 596.584 570.840, 597.348 503.500 C 597.554 485.350, 598.041 470.364, 598.430 470.197 C 598.820 470.030, 600.774 472.055, 602.774 474.697 C 604.773 477.339, 606.767 479.650, 607.204 479.833 C 607.642 480.017, 608 480.719, 608 481.395 C 608 482.070, 608.811 483.495, 609.801 484.561 C 612.262 487.209, 629.920 514.095, 634.062 521.500 C 635.908 524.800, 637.774 527.650, 638.209 527.833 C 638.644 528.017, 639 528.633, 639 529.203 C 639 529.772, 640.530 532.772, 642.400 535.869 C 646.153 542.084, 648.764 546.775, 654.721 558 C 656.910 562.125, 660.279 568.425, 662.209 572 C 669.085 584.740, 675.906 597.755, 685.008 615.500 C 699.764 644.270, 702.172 646.790, 715.801 647.724 L 723.673 648.263 727.636 644.138 C 734.124 637.387, 735.430 632.181, 734.539 616.625 C 734.125 609.406, 733.497 560.075, 733.143 507 L 732.500 410.500 729.641 406.287 C 726.608 401.815, 720.119 397.935, 715.934 398.090 C 714.595 398.140, 711.977 398.618, 710.115 399.154 M 869 398.594 C 849.191 400.917, 844.302 402.096, 831.500 407.640 C 811.567 416.270, 798.893 429.560, 794.914 446 C 793.117 453.427, 793.391 469.981, 795.441 477.824 C 798.398 489.141, 804.449 498.676, 812.044 503.987 C 813.945 505.316, 815.725 506.667, 816 506.988 C 816.275 507.310, 819.740 509.257, 823.700 511.315 C 833.200 516.252, 843.365 519.433, 861 522.988 C 892.658 529.370, 905.611 536.330, 912.665 550.748 C 915.041 555.603, 915.523 557.999, 915.833 566.487 C 916.151 575.203, 915.872 577.434, 913.674 583.712 C 907.656 600.898, 892.896 613.702, 877.821 614.812 C 865.567 615.714, 850.938 611.517, 829.431 600.927 C 820.276 596.420, 814.158 594, 811.916 594 C 804.881 594, 796.271 600.814, 794.084 608.113 C 791.544 616.592, 798.943 625.135, 816.325 633.790 C 827.402 639.306, 834.200 641.884, 846.500 645.234 C 857.320 648.181, 885.869 648.415, 896 645.640 C 907.874 642.387, 914.807 638.417, 923.044 630.153 C 939.158 613.987, 946.264 594.473, 946.406 566 C 946.543 538.695, 940.598 524.509, 923.500 511.336 C 913.882 503.925, 900.411 498.706, 880 494.482 C 838.909 485.978, 824.633 475.617, 826.250 455.473 C 826.882 447.603, 830.645 441.758, 838.390 436.617 C 860.973 421.627, 879.326 421.201, 908.500 434.988 C 915.328 438.215, 926.457 442, 929.118 442 C 932.719 442, 936.019 439.593, 937.985 435.530 C 947.070 416.764, 923.048 399.949, 885.271 398.630 C 878.247 398.385, 870.925 398.369, 869 398.594 M 394.511 402.232 L 340.521 403.136 335.947 405.626 C 327.252 410.358, 323.702 419.719, 327.956 426.696 C 332.020 433.361, 331.676 433.303, 367.633 433.406 L 400.139 433.500 399.321 454 C 398.220 481.579, 398.543 592.299, 399.801 618.649 C 400.583 635.045, 401.199 640.617, 402.539 643.442 C 404.941 648.503, 409.367 650.223, 417.771 649.362 C 426.648 648.453, 429.016 646.316, 429.860 638.457 C 430.212 635.181, 430.140 604.600, 429.700 570.500 C 428.735 495.783, 429.425 434.241, 431.248 432.418 C 431.407 432.260, 446.077 431.806, 463.850 431.410 C 494.531 430.727, 496.324 430.583, 499.332 428.560 C 503.628 425.670, 505.901 420.649, 505.920 414 C 505.938 407.862, 505.037 406.212, 499.982 403.130 C 496.666 401.109, 495.353 401.015, 472.500 401.168 C 459.300 401.256, 424.205 401.735, 394.511 402.232 M 154.687 432.750 C 153.105 435.498, 153.232 534.834, 154.849 559.500 C 155.900 575.548, 159.880 616.078, 160.473 616.768 C 161.551 618.024, 181.347 619.141, 194.500 618.688 C 222.302 617.730, 242.160 610.911, 249.516 599.797 C 255.207 591.197, 255.228 560.369, 249.558 536.837 C 239.178 493.752, 210.382 458.873, 167.160 437.032 C 157.101 431.949, 155.470 431.389, 154.687 432.750" stroke="none" fill="black" fill-rule="evenodd"/>
</svg>