<svg id="icon" xmlns="http://www.w3.org/2000/svg" viewBox="0 0 75 75"><title>action-share</title><path d="M59.67,68.2a4.5,4.5,0,0,1-4.54,0l-17.28-10a2,2,0,0,1-.75-2.81,2,2,0,0,1,1.6-1,2,2,0,0,1,1.21.26L54.7,63.2a2,2,0,0,0,2,0,2,2,0,0,0,1-1.75L58,15.75A2,2,0,0,0,55,14L15.53,37.09a2,2,0,0,0,0,3.5l8.83,5.1a2,2,0,0,1,.83.91,2,2,0,0,1-.08,1.89,2,2,0,0,1-2.81.75L11,42.71a4.55,4.55,0,0,1,0-7.86l44.45-26a4.55,4.55,0,0,1,6.84,4L62,64.28A4.53,4.53,0,0,1,59.67,68.2Z" fill="#b3ab88"/><path d="M24.61,61.29l-.17-.11a2.12,2.12,0,0,1-.5-3L52.72,17.55a2.08,2.08,0,0,1,3-.5,2.12,2.12,0,0,1,.5,3L27.39,60.68A2.12,2.12,0,0,1,24.61,61.29Z" fill="#b3ab88"/></svg>