<svg id="圖層_1" data-name="圖層 1" xmlns="http://www.w3.org/2000/svg" viewBox="0 0 50 50"><title>icon-share</title><ellipse cx="30.5" cy="34.5" rx="15.5" ry="13.82" fill="#fff9db"/><path d="M25,11.93l11.5,0c1,0,1.17.07,1.35,1.19.81,5.27,1.67,11.08,2.71,18.28a1.45,1.45,0,0,1-.24,1.16,1.41,1.41,0,0,1-1.06.4q-2.89,0-5.78,0H11.15a2.14,2.14,0,0,1-1.47-.38A2.24,2.24,0,0,1,9.51,31q.47-3.17.93-6.33c.55-3.79,1.12-7.7,1.7-11.54.18-1.15.31-1.2,1.33-1.2l11.48,0m0-3.46-11.5,0c-2.77,0-4.32,1.35-4.74,4.14-.91,6-1.75,11.93-2.63,17.89-.54,3.65,1.36,5.91,5,5.93H33.44q2.91,0,5.81,0a4.63,4.63,0,0,0,4.69-5.51q-1.32-9.16-2.71-18.31c-.42-2.77-2-4.12-4.76-4.13L25,8.47Z" fill="#b3ab88"/><path d="M25,41.53H11.21a13.23,13.23,0,0,1-1.49,0,1,1,0,0,1-1-1.15,1.12,1.12,0,0,1,.9-1.26,8.19,8.19,0,0,1,1.69-.12H38.57a8.94,8.94,0,0,1,1.69.09,1.18,1.18,0,0,1,1,1.4,1.06,1.06,0,0,1-1.11,1.06c-.57,0-1.13,0-1.7,0Z" fill="#b3ab88"/><path d="M25,16.44a5.73,5.73,0,0,1,5.7,5.07,2.83,2.83,0,0,1-.1,1.22A1.55,1.55,0,0,1,29,24c-.85,0-1.69,0-2.54,0a1.55,1.55,0,0,0-.72.12.56.56,0,0,0-.16,1c.12.12.27.2.38.3a1.92,1.92,0,0,1,.28.34A1.26,1.26,0,0,1,26.38,27a1.42,1.42,0,0,1-1.32.93h-.26a5.34,5.34,0,0,1-3.26-1.14,5.69,5.69,0,0,1-2.28-4.59,5.72,5.72,0,0,1,5.41-5.71H25m-1.64,4.42h0a.92.92,0,0,0,1-1,1,1,0,0,0-1-1h0a1,1,0,0,0-1,1,.94.94,0,0,0,1,1m3.27,0a.94.94,0,0,0,1-1,1,1,0,0,0-1-1,1,1,0,0,0-1,1,.93.93,0,0,0,1,1m-4.57,2.62a.93.93,0,0,0,1-1,1,1,0,0,0-.94-1h0a1,1,0,0,0-1,1,1,1,0,0,0,1,.94M25,14.71h-.42a7.48,7.48,0,0,0-6,11.25,7.32,7.32,0,0,0,1.94,2.17,7.05,7.05,0,0,0,4.3,1.49h.34a3.15,3.15,0,0,0,2.83-2,2.89,2.89,0,0,0,.12-1.91H29a3.27,3.27,0,0,0,3.23-2.44,4.5,4.5,0,0,0,.17-1.93A7.45,7.45,0,0,0,25,14.71Z" fill="#b3ab88"/></svg>