<svg id="圖層_1" data-name="圖層 1" xmlns="http://www.w3.org/2000/svg" viewBox="0 0 100 100"><title>iconpostIt</title><ellipse cx="55.5" cy="59.5" rx="15.5" ry="13.82" fill="#fff9db"/><path d="M56.71,69.45a1.42,1.42,0,0,1-.71-.19L45.73,63.32a1.42,1.42,0,0,1,.2-2.55l9.72-3.72-6.4-16.71a1.42,1.42,0,0,1,.1-1.21l3.2-5.54a1.42,1.42,0,0,1,1.94-.52l16.81,9.71a1.42,1.42,0,0,1,.52,1.94l-13.87,24a1.42,1.42,0,0,1-.86.66A1.4,1.4,0,0,1,56.71,69.45Zm-7-7.09,6.47,3.74L68.65,44.53,54.29,36.23,52.14,40l6.67,17.4A1.42,1.42,0,0,1,58,59.2Z" fill="#b3ab88"/><path d="M36.41,58.58a1.42,1.42,0,0,1-1.32-.91l-7-18.26a1.42,1.42,0,0,1,.82-1.83L47,30.64a1.42,1.42,0,0,1,1.83.82l7,18.26a1.42,1.42,0,0,1-.82,1.83L36.92,58.49A1.41,1.41,0,0,1,36.41,58.58ZM31.25,39.73l6,15.61,15.49-5.93-6-15.61Z" fill="#b3ab88"/><path d="M39.34,66.23A1.42,1.42,0,0,1,38,65.32l-2.93-7.65a1.42,1.42,0,0,1,.82-1.83L54,48.9a1.42,1.42,0,0,1,1.83.82l2.93,7.65A1.42,1.42,0,0,1,58,59.2L39.85,66.14A1.42,1.42,0,0,1,39.34,66.23ZM38.24,58l1.92,5,15.49-5.93-1.92-5Z" fill="#b3ab88"/></svg>