<svg id="圖層_1" data-name="圖層 1" xmlns="http://www.w3.org/2000/svg" viewBox="0 0 100 100"><title>iconeditor_1</title><path d="M68.64,34.76c-.76-.79-1.55-1.56-2.33-2.34-3.32-3.29-5.78-3.31-9.12,0Q45.5,44.08,33.84,55.75A5,5,0,0,0,32.27,58c-.77,3.2-1.55,6.41-2.21,9.64-.39,1.91.46,2.68,2.44,2.31,1.58-.3,3.11-.92,4.69-1.06,4.43-.39,7.5-2.81,10.47-5.92,6.6-6.92,13.46-13.59,20.25-20.32A6.61,6.61,0,0,0,70,38.18,5.29,5.29,0,0,0,68.64,34.76ZM37.75,65.56l-2.73.6c-1.24.12-1.36-.38-1.13-1.21.4-1.46.79-2.93,1.09-4.42.25-1.25.93-1.18,1.84-.78A6.16,6.16,0,0,1,39,61.39C41.22,63.93,40.93,64.87,37.75,65.56ZM61.14,44.87q-8.36,8.29-16.66,16.65c-.7.71-1.21.77-1.71-.22a8.94,8.94,0,0,0-3.77-4c-1.3-.69-.89-1.28-.09-2.06,2.18-2.12,4.31-4.29,6.45-6.44L56.23,37.88c1.77,1.86,3.3,3.54,4.92,5.14C61.85,43.71,61.83,44.18,61.14,44.87Zm3-3.21c-1.66-1.72-3.2-3.4-4.83-5-.74-.71-.62-1.17,0-1.86,1.82-2.07,2.78-2.14,4.77-.23l.54.53C67.75,38.22,67.74,38.5,64.16,41.66Z" fill="#757159"/></svg>