<svg id="圖層_1" data-name="圖層 1" xmlns="http://www.w3.org/2000/svg" viewBox="0 0 100 100"><title>iconstorage</title><ellipse cx="55.5" cy="59.5" rx="15.5" ry="13.82" fill="#fff9db"/><path d="M62,67.5H38a1.71,1.71,0,0,1-1.71-1.71V34.21A1.71,1.71,0,0,1,38,32.5H62a1.71,1.71,0,0,1,1.71,1.71V65.79A1.71,1.71,0,0,1,62,67.5ZM39.68,64.09H60.32V35.91H39.68Z" fill="#b3ab88"/><path d="M54.82,43.58H45.18a1.84,1.84,0,1,1,0-3.67h9.65a1.84,1.84,0,1,1,0,3.67Z" fill="#b3ab88"/><path d="M54.82,44.26H45.18a1.84,1.84,0,1,1,0-3.67h9.65a1.84,1.84,0,1,1,0,3.67Z" fill="#b3ab88"/><path d="M49.95,59.18c1-.13,1.43.28,1.43,1.33S51,61.93,50,61.92s-1.36-.31-1.36-1.29S48.83,59,49.95,59.18Z" fill="#b3ab88"/></svg>