<svg id="圖層_1" data-name="圖層 1" xmlns="http://www.w3.org/2000/svg" viewBox="0 0 100 100"><title>icontodo</title><ellipse cx="55.5" cy="59.5" rx="15.5" ry="13.82" fill="#fff9db"/><path d="M64.16,51.42c0,4.4,0,8.8,0,13.2,0,2.18-.17,2.36-2.27,2.37Q50,67,38.13,67c-2.11,0-2.27-.18-2.28-2.36q0-13.2,0-26.4c0-2.11,1.73-3.16,3.66-2.26a1.61,1.61,0,0,1,.25,2.55,2.56,2.56,0,0,0-1,2.45q0,10.47,0,20.94c0,2,.06,2.11,2,2.11h18.3c2,0,2-.08,2-1.93,0-7.16,0-14.31,0-21.47a2,2,0,0,0-.84-2c-.79-.49-.68-1.34-.46-2.07s1-.72,1.61-.74c2.36-.07,2.63.17,2.63,2.54C64.16,42.74,64.16,47.08,64.16,51.42Z" fill="#b3ab88"/><path d="M49.93,41.68c-1.82,0-3.64,0-5.45,0-1.22,0-1.68-.51-1.65-1.69,0-1.82,0-3.64,0-5.45,0-1,.35-1.55,1.42-1.55Q50,33,55.69,33c1,0,1.48.48,1.47,1.51,0,1.88,0,3.75,0,5.63,0,1.13-.5,1.58-1.6,1.56C53.69,41.66,51.81,41.68,49.93,41.68Zm0-3h3c.92,0,1.2-.51,1.2-1.35S53.83,36,52.93,36q-2.9,0-5.8,0c-.87,0-1.27.38-1.29,1.27s.33,1.44,1.32,1.41S49,38.68,50,38.67Z" fill="#b3ab88"/><path d="M52.64,54.37c-1.4,0-2.8,0-4.21,0-1.09,0-1.41-.58-1.39-1.56S47.24,51,48.44,51q4.38,0,8.76,0c1.19,0,1.36.85,1.39,1.82s-.3,1.57-1.39,1.56C55.68,54.36,54.16,54.37,52.64,54.37Z" fill="#b3ab88"/><path d="M52.9,60c-1.47,0-2.93,0-4.4,0-1.05,0-1.46-.54-1.45-1.54s.17-1.82,1.38-1.83q4.4,0,8.79,0c1.2,0,1.34.89,1.36,1.85S58.16,60,57.12,60C55.71,60,54.3,60,52.9,60Z" fill="#b3ab88"/><path d="M52.74,48.74c-1.35,0-2.7,0-4,0-1.07,0-1.66-.37-1.65-1.53s.24-1.87,1.54-1.87q4.22,0,8.44,0c1.28,0,1.54.78,1.56,1.85S58,48.77,57,48.75C55.56,48.72,54.15,48.74,52.74,48.74Z" fill="#b3ab88"/><path d="M44.54,47.21c.16,1.25-.46,1.61-1.63,1.62s-1.58-.57-1.57-1.71.48-1.52,1.58-1.53S44.7,46,44.54,47.21Z" fill="#b3ab88"/><path d="M42.9,51.26c1.17-.15,1.68.33,1.68,1.56s-.44,1.66-1.64,1.64-1.6-.36-1.6-1.51S41.59,51.1,42.9,51.26Z" fill="#b3ab88"/><path d="M44.43,58.53c0,1.07-.55,1.43-1.54,1.42s-1.43-.56-1.41-1.55S42,57,43,57,44.48,57.55,44.43,58.53Z" fill="#b3ab88"/></svg>