<svg id="圖層_1" data-name="圖層 1" xmlns="http://www.w3.org/2000/svg" viewBox="0 0 100 100"><title>iconeditor_6</title><path d="M50,35.54a14.47,14.47,0,0,1,14.4,12.81,7.16,7.16,0,0,1-.25,3.08,3.92,3.92,0,0,1-4.09,3.1c-2.14,0-4.27,0-6.41,0a3.9,3.9,0,0,0-1.82.31,1.41,1.41,0,0,0-.4,2.49c.29.29.67.49,1,.76a4.83,4.83,0,0,1,.7.85,3.18,3.18,0,0,1,.38,3.08,3.6,3.6,0,0,1-3.33,2.36l-.65,0a13.47,13.47,0,0,1-8.23-2.87A14.37,14.37,0,0,1,35.53,50,14.45,14.45,0,0,1,49.19,35.56l.82,0M45.87,46.69h0a2.32,2.32,0,0,0,2.43-2.47,2.46,2.46,0,0,0-2.47-2.47h0a2.49,2.49,0,0,0-2.43,2.54,2.38,2.38,0,0,0,2.47,2.41m8.25,0a2.38,2.38,0,0,0,2.49-2.43,2.49,2.49,0,0,0-2.47-2.52,2.44,2.44,0,0,0-2.47,2.49,2.34,2.34,0,0,0,2.45,2.45M42.59,53.3A2.34,2.34,0,0,0,45,50.87a2.39,2.39,0,0,0-2.38-2.52h-.08a2.47,2.47,0,0,0-2.48,2.56,2.41,2.41,0,0,0,2.49,2.38M50,32l-1,0A18,18,0,0,0,34.49,59.14a17.71,17.71,0,0,0,4.68,5.24A17,17,0,0,0,49.51,68l.81,0a7.12,7.12,0,0,0,6.39-4.51,6.53,6.53,0,0,0-.13-5.35c1.18,0,2.37,0,3.56,0a7.35,7.35,0,0,0,7.35-5.52,10.59,10.59,0,0,0,.4-4.54A18,18,0,0,0,50,32Z" fill="#757159"/></svg>