<svg id="圖層_1" data-name="圖層 1" xmlns="http://www.w3.org/2000/svg" viewBox="0 0 100 100"><title>icon工作區域 10</title><path d="M67.55,46.47c-1.95,0-3.89,0-5.84,0h-8l8.62-10.36a10.39,10.39,0,0,0,1.09-1.39,1.53,1.53,0,0,0-.28-2.07,1.35,1.35,0,0,0-2,.13c-.54.53-1,1.11-1.53,1.69-3,3.56-6,7.13-9,10.67-.53.62-1,1.37-2,1.33-1.85-.06-3.7,0-6,0a7.22,7.22,0,0,0,.86-3.34,6.59,6.59,0,0,0-5.1-6.68A6.75,6.75,0,0,0,31,40a6.59,6.59,0,0,0,1.77,8,6.87,6.87,0,0,0,4.74,1.45c3,0,6,0,9.23,0A9.33,9.33,0,0,1,46,50.62c-1.74,2.07-3.52,4.11-5.23,6.21a6.65,6.65,0,1,0,10.73,7.79A6.67,6.67,0,0,0,49,55.24c-.5-.28-1.18-.27-1.56-1,.36-1.1,1.48-1.73,2-2.73,1-1.77,2.51-2.17,4.46-2.12,4.57.12,9.14,0,13.71,0,1.08,0,2.14-.08,2.1-1.53S68.62,46.46,67.55,46.47ZM40.31,43.38a3.4,3.4,0,1,1-6.74-.92,3.39,3.39,0,0,1,3.69-3A3.53,3.53,0,0,1,40.31,43.38ZM49.36,61a3.55,3.55,0,0,1-3.46,3.61,3.71,3.71,0,0,1-3.52-3.36,3.79,3.79,0,0,1,3.53-3.63A3.58,3.58,0,0,1,49.36,61Z" fill="#4e5158"/></svg>