<svg id="圖層_1" data-name="圖層 1" xmlns="http://www.w3.org/2000/svg" viewBox="0 0 100 100"><title>iconeditor_4</title><path d="M41.4,45.08c0,3.3,0,6.6,0,9.9,0,2.75.91,3.59,3.69,3.63,2.37,0,4.74,0,7.1,0h1.52c.94,0,1.76.28,1.82,1.33s-.68,1.68-1.78,1.68c-3.47,0-6.94.13-10.4,0a5.18,5.18,0,0,1-5-5.39q-.09-6.47,0-12.94c0-1.39-.37-2-1.84-1.9a21.75,21.75,0,0,1-2.54,0c-1,0-1.67-.37-1.69-1.45s.6-1.46,1.6-1.55c1.4-.12,3.14.6,4.13-.42s.22-2.59.32-3.92c.07-1,.35-1.69,1.44-1.71s1.57.82,1.57,1.85c0,3.64,0,7.27,0,10.91Z" fill="#757159"/><path d="M58.61,55.31c0-3.29,0-6.59,0-9.88s-.86-4-4.06-4.05c-2.7,0-5.41,0-8.11,0-.89,0-1.77-.11-1.94-1.18-.2-1.33.56-1.82,1.79-1.82,3.38,0,6.76-.08,10.14,0,3.11.1,5.17,2.36,5.23,5.7.08,4.05,0,8.11,0,12.16,0,2.33,0,2.33,2.36,2.35.59,0,1.18,0,1.77,0,1.08,0,1.9.36,1.86,1.54s-.92,1.5-2,1.49c-.76,0-1.53.06-2.28,0-1.26-.11-1.9.29-1.77,1.67a17.23,17.23,0,0,1,0,2.79A1.52,1.52,0,0,1,60,67.68c-1.06,0-1.41-.77-1.41-1.73q0-5.32,0-10.64Z" fill="#757159"/></svg>