<svg id="圖層_1" data-name="圖層 1" xmlns="http://www.w3.org/2000/svg" viewBox="0 0 100 100"><title>icon工作區域 9</title><path d="M69.7,39.69c-.19-1.52-1.37-1.46-2.5-1.44-2.45,0-4.9,0-7.35.07-1.42,0-2.22-.1-2.45-1.93a7.51,7.51,0,0,0-14.79,0c-.23,1.82-1,2-2.46,1.92-2.7-.07-5.41-.06-8.11-.07a1.54,1.54,0,0,0-1.75,1.45c-.11.87.25,1.64,1.11,1.72,2.85.28,3,2.27,3,4.41,0,5.58.21,11.17-.06,16.73-.26,5.36,2.79,7.55,7.09,7.2,2.85-.23,5.74,0,8.62,0s5.76-.18,8.62,0c4.58.37,7.31-2.19,7.09-6.95-.26-5.48-.06-11-.06-16.48A17.86,17.86,0,0,1,65.74,44c.16-1.26.69-2.27,2.13-2.46C69,41.45,69.87,41,69.7,39.69Zm-23.63-3.9A4.2,4.2,0,0,1,50.5,33.5a4.31,4.31,0,0,1,3.73,3c.29,1,.31,1.86-1.17,1.78-1-.06-2,0-3,0h0c-.85,0-1.69,0-2.54,0C45.54,38.19,45.14,37.51,46.07,35.79ZM62.7,43.28c-.25,6.08-.12,12.17-.12,18.25,0,4.88-.28,5.15-5.16,5.15-5.41,0-10.82,0-16.23,0-3,0-3.73-.72-3.75-3.76,0-5.16,0-10.31,0-15.47a29.89,29.89,0,0,0-.27-5.72,2.14,2.14,0,0,1,1.76-.35c7.35.24,14.7.29,22,0C62.47,41.3,62.77,41.55,62.7,43.28Z" fill="#50535b"/><path d="M55.66,48.15a1.61,1.61,0,1,0-3.22.05q0,4.79,0,9.59c0,1,.44,1.81,1.64,1.8s1.56-.83,1.59-1.85c0-1.51,0-3,0-4.54C55.67,51.52,55.68,49.83,55.66,48.15Z" fill="#595c63"/><path d="M47.58,53c0-1.51,0-3,0-4.54,0-1.18-.46-2-1.72-2-1.1,0-1.54.86-1.54,1.93,0,3.11,0,6.23,0,9.34,0,1,.36,1.84,1.58,1.86s1.62-.76,1.64-1.8c0-1.6,0-3.2,0-4.8Z" fill="#5a5c64"/></svg>