<svg id="圖層_1" data-name="圖層 1" xmlns="http://www.w3.org/2000/svg" viewBox="0 0 100 100"><title>icon工作區域 12</title><path d="M52.22,53.7c1.39-1.44,2.79-2.88,4.18-4.33.83-.87,1.79-1.54,2.8-.46s.25,2-.58,2.82C56.34,54,54.1,56.28,51.8,58.51c-1.34,1.3-2.2,1.35-3.47.12-2.43-2.34-4.78-4.77-7.18-7.15a2,2,0,0,1-.56-2.29,1.38,1.38,0,0,1,1.21-.8c.87-.11,1.37.54,1.9,1.07L48,53.72A4.5,4.5,0,0,0,48.38,51c0-5,0-10,0-14.95,0-.42,0-.84,0-1.27,0-1.2-.08-2.56,1.68-2.52,1.58,0,1.52,1.3,1.53,2.4,0,1.35,0,2.7,0,4.05q0,7.33,0,14.67Z" fill="#51545b"/><path d="M50,67.65c-3.89,0-7.78-.12-11.66,0s-6.82-2.67-6-8a1.33,1.33,0,0,1,1.17-1.16,1.43,1.43,0,0,1,1.66.86,3.84,3.84,0,0,1,.22,1.23c.32,3.6.59,3.88,4.08,3.88q10.65,0,21.3,0c3.18,0,3.6-.45,3.81-3.65a5.16,5.16,0,0,1,.12-1.25,1.41,1.41,0,0,1,1.52-1.08,1.39,1.39,0,0,1,1.41,1.21c.85,5.39-2.19,8.17-6,7.91-1.93-.13-3.89,0-5.83,0Z" fill="#51545b"/></svg>