<svg id="圖層_1" data-name="圖層 1" xmlns="http://www.w3.org/2000/svg" viewBox="0 0 100 100"><title>icon工作區域 1</title><path d="M35.58,59.58c.62-3.35,1.16-6.58,4-9.19,5-4.57,9.68-9.57,14.51-14.37,2.84-2.82,3.93-2.81,6.72-.07,4.22,4.13,4.22,4.62.07,8.77-4.66,4.66-9.47,9.19-13.93,14-2.56,2.79-5.86,3-9.08,3.64C36.42,62.68,35.52,61.38,35.58,59.58Zm3.69.2a8.39,8.39,0,0,0,5.83-2.4q4.83-4.81,9.64-9.64c3.11-3.11,3-3-.21-6.14-1.18-1.13-1.82-1-2.86.09Q46,47.51,40.2,53.17c-1.64,1.59-1.76,3.63-2.09,5.63C38,59.67,38.51,59.91,39.27,59.78Zm20-16.91a5.46,5.46,0,0,0,2.14-2c.45-.65,0-1.21-.46-1.69-.77-.75-1.55-1.5-2.29-2.28s-1.35-.77-2.19-.06c-1.7,1.45-1.78,1.75-.06,3.47C57.33,41.25,58,42.38,59.3,42.87Z" fill="#5f32fc"/><path d="M50,66h-12c-.65,0-1.3,0-1.94,0s-1.3-.33-1.37-1.09.54-1.13,1.21-1.23a10.37,10.37,0,0,1,1.61,0c8.31,0,16.62,0,24.93,0,1.06,0,2.83-.56,2.73,1.25S63.41,66,62.35,66C58.25,66.06,54.15,66,50,66Z" fill="#37cefc"/><path d="M56.16,61.92c-2.16,0-4.32,0-6.48,0-.81,0-1.6-.32-1.57-1.26S49,59.6,49.8,59.6q6.64,0,13.28,0c.79,0,1.63.12,1.56,1.16s-.89,1.14-1.68,1.15c-2.27,0-4.54,0-6.8,0Z" fill="#37cefc"/></svg>