<svg id="圖層_1" data-name="圖層 1" xmlns="http://www.w3.org/2000/svg" viewBox="0 0 100 100"><title>iconSetting</title><path d="M50,56.25A6.25,6.25,0,1,1,56.25,50,6.26,6.26,0,0,1,50,56.25Zm0-10A3.75,3.75,0,1,0,53.75,50,3.75,3.75,0,0,0,50,46.25Z" fill="#fff9db"/><path d="M50.49,68c-2.17,0-3.65-1.84-5-3.46a9.06,9.06,0,0,0-2.12-2.17,8.76,8.76,0,0,0-2.86-.5c-2.16-.17-4.6-.36-5.83-2.33s-.33-4.26.47-6.27A8.74,8.74,0,0,0,36,50.48a9.07,9.07,0,0,0-1-2.85c-.91-1.92-1.93-4.1-.88-6.08s3.36-2.29,5.42-2.62a9.35,9.35,0,0,0,3.06-.8,9.35,9.35,0,0,0,2.07-2.4C45.85,34,47.2,32.08,49.38,32s3.75,1.8,5.08,3.46a9.06,9.06,0,0,0,2.12,2.17,8.76,8.76,0,0,0,2.86.5c2.16.17,4.6.36,5.83,2.33h0c1.23,2,.33,4.26-.47,6.27A8.74,8.74,0,0,0,64,49.52a9.07,9.07,0,0,0,1,2.85c.91,1.92,1.93,4.1.88,6.08s-3.36,2.29-5.42,2.62a9.35,9.35,0,0,0-3.06.8,9.35,9.35,0,0,0-2.07,2.4C54.15,66,52.8,67.92,50.62,68Zm-1-33h0c-.68,0-1.62,1.36-2.37,2.44a11.19,11.19,0,0,1-2.93,3.22A11.18,11.18,0,0,1,40,41.89c-1.3.21-2.92.46-3.23,1.06s.34,2.11.94,3.4a10.81,10.81,0,0,1,1.3,4,10.42,10.42,0,0,1-1,4c-.54,1.35-1.14,2.88-.71,3.57s2.07.82,3.52.93a10.43,10.43,0,0,1,4,.84,10.81,10.81,0,0,1,3,2.94c.89,1.11,1.87,2.35,2.64,2.34s1.62-1.36,2.37-2.44a11.19,11.19,0,0,1,2.93-3.22A11.18,11.18,0,0,1,60,58.11c1.3-.21,2.92-.46,3.23-1.06s-.34-2.11-.94-3.4a10.81,10.81,0,0,1-1.3-4,10.42,10.42,0,0,1,1-4c.54-1.35,1.14-2.88.71-3.57s-2.07-.82-3.52-.93a10.43,10.43,0,0,1-4-.84,10.81,10.81,0,0,1-3-2.94C51.24,36.25,50.24,35,49.5,35Z" fill="#b3ab88"/></svg>