<svg id="圖層_1" data-name="圖層 1" xmlns="http://www.w3.org/2000/svg" viewBox="0 0 100 100"><title>iconnovel</title><ellipse cx="55.5" cy="59.5" rx="15.5" ry="13.82" fill="#fff9db"/><path d="M65.29,62.45a1.14,1.14,0,0,1-.28,0,31.56,31.56,0,0,0-15.65,0,1.14,1.14,0,0,1-1.43-1.11V40.44a1.14,1.14,0,0,1,.86-1.11,33.87,33.87,0,0,1,16.79,0,1.14,1.14,0,0,1,.86,1.11V61.3a1.14,1.14,0,0,1-1.14,1.14Zm-8.11-3.31a33.83,33.83,0,0,1,7,.72V41.34a31.56,31.56,0,0,0-13.93,0V59.86A33.83,33.83,0,0,1,57.18,59.14Z" fill="#b3ab88"/><path d="M52.41,46.14a.93.93,0,0,1-.23-1.83,18.24,18.24,0,0,1,9,0,.93.93,0,1,1-.46,1.8,16.36,16.36,0,0,0-8.13,0A.93.93,0,0,1,52.41,46.14Z" fill="#b3ab88"/><path d="M61,48.72a.93.93,0,0,1-.23,0,16.38,16.38,0,0,0-8.13,0,.93.93,0,0,1-.46-1.8,18.24,18.24,0,0,1,9,0A.93.93,0,0,1,61,48.72Z" fill="#b3ab88"/><path d="M52.41,51.29a.93.93,0,0,1-.23-1.83,18.24,18.24,0,0,1,9,0,.93.93,0,1,1-.46,1.8,16.38,16.38,0,0,0-8.13,0A.93.93,0,0,1,52.41,51.29Z" fill="#b3ab88"/><path d="M61,53.87a.93.93,0,0,1-.23,0,16.38,16.38,0,0,0-8.13,0,.93.93,0,0,1-.46-1.8,18.24,18.24,0,0,1,9,0A.93.93,0,0,1,61,53.87Z" fill="#b3ab88"/><path d="M52.41,56.68a.93.93,0,0,1-.3-1.81,12.6,12.6,0,0,1,6.18-.51A.93.93,0,1,1,58,56.19a10.73,10.73,0,0,0-5.27.44A.92.92,0,0,1,52.41,56.68Z" fill="#b3ab88"/><path d="M49.07,62.45a1.15,1.15,0,0,1-.47-.1,18.57,18.57,0,0,0-15.28,0,1.14,1.14,0,0,1-1.62-1V40.44a1.15,1.15,0,0,1,.67-1,20.87,20.87,0,0,1,17.17,0,1.15,1.15,0,0,1,.67,1V61.3a1.14,1.14,0,0,1-1.14,1.14Zm-8.11-4a20.86,20.86,0,0,1,7,1.2V41.2A18.58,18.58,0,0,0,34,41.2V59.61A20.86,20.86,0,0,1,41,58.41Z" fill="#b3ab88"/><path d="M45,56.4a.92.92,0,0,1-.38-.08,9.51,9.51,0,0,0-7.83,0A.93.93,0,1,1,36,54.63a11.37,11.37,0,0,1,9.35,0A.93.93,0,0,1,45,56.4Z" fill="#b3ab88"/><path d="M44.78,47.67a.92.92,0,0,1-.38-.08,9.5,9.5,0,0,0-7.83,0,.93.93,0,1,1-.76-1.69,11.36,11.36,0,0,1,9.35,0,.93.93,0,0,1-.38,1.77Z" fill="#b3ab88"/><path d="M44.78,50.58a.92.92,0,0,1-.38-.08,9.5,9.5,0,0,0-7.83,0,.93.93,0,1,1-.76-1.69,11.36,11.36,0,0,1,9.35,0,.93.93,0,0,1-.38,1.77Z" fill="#b3ab88"/><path d="M36.19,53.76A.93.93,0,0,1,35.86,52a11.73,11.73,0,0,1,6.48-.58A.93.93,0,1,1,42,53.2a9.86,9.86,0,0,0-5.45.49A.93.93,0,0,1,36.19,53.76Z" fill="#b3ab88"/><path d="M36.19,45.23a.93.93,0,0,1-.48-1.72,7.3,7.3,0,0,1,4.1-1.09.93.93,0,1,1-.1,1.85,5.53,5.53,0,0,0-3.05.82A.92.92,0,0,1,36.19,45.23Z" fill="#b3ab88"/><path d="M67.68,60.63H65.53a.62.62,0,0,1-.62-.62V51.18a.62.62,0,0,1,.62-.62h2.15a.62.62,0,0,1,.62.62V60A.62.62,0,0,1,67.68,60.63Zm-1.53-1.24h.91V51.8h-.91Z" fill="#b3ab88"/><path d="M67.68,57.68H65.53a.62.62,0,0,1,0-1.24h2.15a.62.62,0,0,1,0,1.24Z" fill="#b3ab88"/><path d="M67.68,54.74H65.53a.62.62,0,0,1,0-1.24h2.15a.62.62,0,0,1,0,1.24Z" fill="#b3ab88"/></svg>