<svg id="圖層_1" data-name="圖層 1" xmlns="http://www.w3.org/2000/svg" viewBox="0 0 100 100"><title>iconMember</title><path d="M48.27,58a1.15,1.15,0,0,1-1,1.17A10.83,10.83,0,0,1,45,59.3c-1.23-.05-1.8.48-1.69,1.72a4.82,4.82,0,0,1,0,.65c0,1,.27,2.52-1.22,2.49S40.9,62.59,41,61.6c.18-1.89-.64-2.52-2.41-2.31a4.58,4.58,0,0,1-1.59-.1,1.09,1.09,0,0,1-1-1.11c0-.62.5-.92,1-1.07a2.2,2.2,0,0,1,1-.07c2.48.45,3.32-.64,3-3C40.85,53,41,52,42.16,52s1.28,1.07,1.15,1.93c-.39,2.48.65,3.34,3,3C47.22,56.81,48.08,57,48.27,58Z" fill="#fff9db"/><path d="M49.33,34.3A8.48,8.48,0,0,1,56.66,39a8.35,8.35,0,0,1-.6,9.18c-1.46,2.17-1.46,2.2.75,3.6A15.05,15.05,0,0,1,63.9,62.84a6.67,6.67,0,0,1,0,1.92,1.07,1.07,0,0,1-1.14.94,1,1,0,0,1-.89-.81c-.08-.31-.08-.64-.13-1-1.41-8-4.94-11.19-13.17-12.08-5.2-.56-8.56-4.34-8.3-9.35A8.78,8.78,0,0,1,49.33,34.3ZM55.4,43a6.42,6.42,0,1,0-6.51,6.59A6.41,6.41,0,0,0,55.4,43Z" fill="#b3ab88"/></svg>