<svg id="圖層_1" data-name="圖層 1" xmlns="http://www.w3.org/2000/svg" viewBox="0 0 100 100"><title>iconManage</title><path d="M50,63.51c-.37-2.53-.76-5.07-1.11-7.6-.47-3.4.55-4.56,4-4.48,2.46.06,4.92.18,7.39.27a2,2,0,0,1-1.17,2.37c-1.92-.23-3.86,0-5.77-.49S51,54,51.24,55.69c.33,2.12.59,4.24.88,6.37C51.74,63,51.29,63.86,50,63.51Z" fill="#fff9db"/><path d="M37.46,49.78c0-3.79-.05-7.58,0-11.37.06-3.18,1-4.1,4.08-4.13q8.44-.07,16.89,0c2.92,0,4,1,4.06,3.85.11,4.65,0,9.31,0,14A4.18,4.18,0,0,1,61.4,55c-2.64,3-5.27,6-7.81,9.13A4.06,4.06,0,0,1,50,65.75c-2.7-.11-5.41,0-8.12,0-3.25,0-4.31-1-4.36-4.24C37.42,57.57,37.46,53.68,37.46,49.78Zm21.62,4.28a2,2,0,0,0,1.17-2.37c0-2.26,0-4.53.09-6.78.05-1.24-.36-1.75-1.64-1.75q-8.57.06-17.14,0c-1.35,0-1.9.48-1.88,1.9.06,5.39.08,10.78,0,16.17,0,1.92.88,2.43,2.57,2.38,2.58-.08,5.17-.08,7.75-.12,1.28.35,1.73-.5,2.12-1.45A67.77,67.77,0,0,0,59.08,54.06Zm-9.41-13h0c2.92,0,5.83,0,8.75,0,1.32,0,2.06-.3,1.92-1.81-.12-1.27.21-2.82-1.74-2.84-5.73,0-11.45,0-17.18,0-2,0-1.62,1.55-1.73,2.8-.13,1.46.52,1.88,1.88,1.84C44.27,41,47,41.06,49.67,41.06Z" fill="#b3ab88"/></svg>