<svg id="圖層_1" data-name="圖層 1" xmlns="http://www.w3.org/2000/svg" viewBox="0 0 100 100"><title>icon工作區域 15</title><path d="M50,38.66l10,0c.9,0,1,.06,1.17,1,.7,4.57,1.45,9.61,2.35,15.86a1.26,1.26,0,0,1-.21,1,1.22,1.22,0,0,1-.92.35l-5,0H38a1.86,1.86,0,0,1-1.28-.33,1.94,1.94,0,0,1-.14-1.38q.4-2.75.8-5.49c.48-3.28,1-6.68,1.48-10,.15-1,.27-1,1.16-1l10,0m0-3-10,0c-2.41,0-3.75,1.17-4.12,3.59-.79,5.17-1.52,10.35-2.28,15.52C33.13,58,34.78,59.92,38,59.93H57.32l5,0a4,4,0,0,0,4.07-4.78q-1.15-7.94-2.35-15.88A3.76,3.76,0,0,0,60,35.68l-10,0Z" fill="#50535a"/><path d="M50,64.34H38a11.48,11.48,0,0,1-1.29,0,.9.9,0,0,1-.86-1,1,1,0,0,1,.78-1.09,7.11,7.11,0,0,1,1.46-.11H61.77a7.75,7.75,0,0,1,1.47.08,1,1,0,0,1,.87,1.21.92.92,0,0,1-1,.92c-.49,0-1,0-1.48,0Z" fill="#54575e"/><path d="M50,42.58A5,5,0,0,1,55,47,2.46,2.46,0,0,1,54.87,48a1.35,1.35,0,0,1-1.41,1.07c-.73,0-1.47,0-2.2,0a1.34,1.34,0,0,0-.63.11.48.48,0,0,0-.14.86c.1.1.23.17.33.26a1.66,1.66,0,0,1,.24.29,1.09,1.09,0,0,1,.13,1.06,1.24,1.24,0,0,1-1.14.81h-.22a4.63,4.63,0,0,1-2.83-1,4.94,4.94,0,0,1-2-4,5,5,0,0,1,4.69-5H50m-1.42,3.83h0a.8.8,0,0,0,.83-.85.85.85,0,0,0-.85-.85h0a.85.85,0,0,0-.83.87.82.82,0,0,0,.85.83m2.83,0a.82.82,0,0,0,.86-.83.86.86,0,0,0-.85-.86.84.84,0,0,0-.85.86.8.8,0,0,0,.84.84m-4,2.27a.8.8,0,0,0,.84-.83.82.82,0,0,0-.82-.86h0a.85.85,0,0,0-.85.88.83.83,0,0,0,.86.82M50,41.08h-.37a6.49,6.49,0,0,0-5.22,9.76,6.35,6.35,0,0,0,1.68,1.88A6.12,6.12,0,0,0,49.83,54h.29a2.73,2.73,0,0,0,2.46-1.73,2.51,2.51,0,0,0,.11-1.66h.8a2.83,2.83,0,0,0,2.8-2.11,3.9,3.9,0,0,0,.15-1.67A6.46,6.46,0,0,0,50,41.08Z" fill="#4f5259"/></svg>