<svg id="圖層_1" data-name="圖層 1" xmlns="http://www.w3.org/2000/svg" viewBox="0 0 100 100"><title>icon工作區域 14</title><path d="M66.7,36.05c0-3.87-1.73-5.13-5.55-4-4.79,1.39-9.56,2.84-14.34,4.25-2.61.77-3.38,1.77-3.4,4.57,0,3.55,0,7.11,0,10.66a15.67,15.67,0,0,1-.22,4.31c-.6-.19-1.07-.36-1.56-.48a6.69,6.69,0,0,0-7.86,4,6.6,6.6,0,0,0,2.81,8.14,6.75,6.75,0,0,0,8.5-1.54A6.67,6.67,0,0,0,46.5,61.2c0-4.23,0-8.46,0-12.69,0-1,0-1.79,1.25-2.14C52.57,45,57.43,43.5,62.28,42c1-.29,1.43-.09,1.41,1,0,2.19,0,4.38,0,6.55a5.37,5.37,0,0,1-2.13-.38,6.61,6.61,0,0,0-6.1,11.12,6.44,6.44,0,0,0,7,1.55,6.12,6.12,0,0,0,4.22-6C66.75,49.25,66.73,42.65,66.7,36.05ZM39.95,65.2a3.35,3.35,0,0,1-3.4-3.31,3.39,3.39,0,1,1,6.76-.3A3.36,3.36,0,0,1,39.95,65.2ZM60,59.11a3.49,3.49,0,0,1-3.32-3.47,3.47,3.47,0,0,1,6.94,0A3.51,3.51,0,0,1,60,59.11Zm3-20.67a2.11,2.11,0,0,1-.47.2L46.78,43.36c-.64-3.46-.53-3.66,2.38-4.52,4.21-1.25,8.41-2.51,12.63-3.75.66-.2,1.62-.85,1.8.38C63.73,36.45,64.26,37.68,63,38.44Z" fill="#4f525a"/></svg>