<svg id="圖層_1" data-name="圖層 1" xmlns="http://www.w3.org/2000/svg" viewBox="0 0 100 100"><title>icon工作區域 7</title><path d="M40.11,41.6a1.47,1.47,0,0,1-2.34,1.22,11.79,11.79,0,0,1-3.22-3.13,1.52,1.52,0,0,1,.07-1.88,1.42,1.42,0,0,1,1.32-.57C37,37.3,40.1,40.54,40.11,41.6Z" fill="#55575f"/><path d="M61.5,43.06a1.43,1.43,0,0,1-1.17-.6,1.46,1.46,0,0,1,.08-1.87c.94-1.07,2-2.06,3-3A1.41,1.41,0,0,1,65,37.38a1.46,1.46,0,0,1,.85,1.42C65.88,39.93,62.8,43,61.5,43.06Z" fill="#55585f"/><path d="M51.55,35a15.66,15.66,0,0,1,0,2.25,1.3,1.3,0,0,1-1.46,1.1c-.76,0-1.38-.37-1.43-1.12a42.88,42.88,0,0,1,0-4.52,1.37,1.37,0,0,1,1.49-1.38,1.4,1.4,0,0,1,1.48,1.4c.06.75,0,1.51,0,2.26Z" fill="#55575e"/><path d="M60.88,49.26C59.39,44.5,55.81,42,51,41.42a11.23,11.23,0,0,0-11,6.26c-2.15,4.4-1.93,8.92,1.34,12.56A10.06,10.06,0,0,1,44,68c0,.93,0,1.86,0,2.79.12,2.66,1.45,3.94,4.14,4,.59,0,1.18,0,1.77,0h1.52c3.29,0,4.57-1.27,4.66-4.57,0-1.35.05-2.7,0-4.05A6.62,6.62,0,0,1,58.28,61C61.56,57.68,62.23,53.57,60.88,49.26ZM51.73,71.81c-.93,0-1.86,0-2.79,0-1.25,0-1.85-.45-1.87-1.77,0-1.47,1-1.32,1.89-1.33h1.27c.51,0,1,0,1.52,0,1,0,1.39.36,1.35,1.34S52.84,71.77,51.73,71.81Zm1.37-7.08c0,.77-.54,1-1.2,1H50.12c-.59,0-1.18,0-1.78,0-.79,0-1.3-.25-1.29-1.15,0-2.39-1.27-4.08-2.84-5.72a8.27,8.27,0,0,1-.33-11.29,8,8,0,0,1,11.55-1,8.4,8.4,0,0,1,.92,11.84C54.69,60.27,53,62,53.1,64.73Z" fill="#4f525a"/></svg>