<svg id="圖層_1" data-name="圖層 1" xmlns="http://www.w3.org/2000/svg" viewBox="0 0 50 50"><title>icon-notes</title><ellipse cx="30.5" cy="34.5" rx="15.5" ry="13.82" fill="#fff9db"/><path d="M38.56,29.45H11.44A1.44,1.44,0,0,1,10,28V16a1.44,1.44,0,0,1,1.44-1.44H38.56A1.44,1.44,0,0,1,40,16V28A1.44,1.44,0,0,1,38.56,29.45ZM12.88,26.58H37.12V17.4H12.88Z" fill="#b3ab88"/><path d="M32.53,11.37H11.44a1.44,1.44,0,0,1,0-2.88h21.1a1.44,1.44,0,0,1,0,2.88Z" fill="#b3ab88"/><path d="M38.56,36.23H11.44a1.44,1.44,0,0,1,0-2.88H38.56a1.44,1.44,0,0,1,0,2.88Z" fill="#b3ab88"/><path d="M22,41.51H11.44a1.44,1.44,0,0,1,0-2.88H22a1.44,1.44,0,0,1,0,2.88Z" fill="#b3ab88"/></svg>