<svg id="圖層_1" data-name="圖層 1" xmlns="http://www.w3.org/2000/svg" viewBox="0 0 35 35"><title>icon-Edit</title><path d="M17.55,33.52h-12c-.65,0-1.3,0-1.94,0s-1.3-.33-1.37-1.09.54-1.13,1.21-1.23a10.37,10.37,0,0,1,1.61,0c8.31,0,16.62,0,24.93,0,1.06,0,2.83-.56,2.73,1.25s-1.83,1.06-2.9,1.08C25.75,33.56,21.65,33.52,17.55,33.52Z" fill="#fff9db"/><path d="M23.66,29.42c-2.16,0-4.32,0-6.48,0-.81,0-1.6-.32-1.57-1.26s.92-1.05,1.69-1.05q6.64,0,13.28,0c.79,0,1.63.12,1.56,1.16s-.89,1.14-1.68,1.15c-2.27,0-4.54,0-6.8,0Z" fill="#fff9db"/><path d="M3.08,27.08c.62-3.35,1.16-6.58,4-9.19,5-4.57,9.68-9.57,14.51-14.37C24.47.7,25.56.71,28.35,3.44c4.22,4.13,4.22,4.62.07,8.77-4.66,4.66-9.47,9.19-13.93,14-2.56,2.79-5.86,3-9.08,3.64C3.92,30.18,3,28.88,3.08,27.08Zm3.69.2a8.39,8.39,0,0,0,5.83-2.4q4.83-4.81,9.64-9.64c3.11-3.11,3-3-.21-6.14-1.18-1.13-1.82-1-2.86.09Q13.52,15,7.7,20.67C6.06,22.26,5.94,24.3,5.6,26.3,5.46,27.17,6,27.41,6.77,27.28Zm20-16.91a5.46,5.46,0,0,0,2.14-2c.45-.65,0-1.21-.46-1.69-.77-.75-1.55-1.5-2.29-2.28S24.83,3.67,24,4.39c-1.7,1.45-1.78,1.75-.06,3.47C24.83,8.75,25.55,9.88,26.8,10.37Z" fill="#b3ab88"/></svg>