<svg id="圖層_1" data-name="圖層 1" xmlns="http://www.w3.org/2000/svg" viewBox="0 0 100 100"><title>icon工作區域 3</title><path d="M39.65,48.1c-1.39.63-2.18,2.84-4.1,2-2.09-1-1.1-3.06-1.16-4.66-.13-3.67-.07-7.35,0-11s1.62-5.12,5.17-5.16q7.78-.07,15.57,0c3.46,0,5,1.71,5.09,5.27,0,1.73,0,3.46.07,5.19l0,2.32c-.41,4.44-1.7,5.65-6.07,5.69L42,47.8C41.19,47.75,40.36,47.54,39.65,48.1Zm7.57-16.58c-2.59,0-5.19,0-7.78,0-1.89,0-2.79.82-2.77,2.73,0,3.78,0,7.57,0,11.35,0,1.61.49,1.67,1.56.71a5,5,0,0,1,3.67-.94c4.22,0,8.43,0,12.65,0,2.87,0,3.33-.52,3.38-3.45,0-2.49.06-5,0-7.46-.07-2.33-.59-2.86-2.9-2.92C52.41,31.47,49.81,31.52,47.22,31.52Z" fill="#5f32fc"/><path d="M60.31,42l0-2.32c4.08.44,5.44,1.8,5.5,5.66.06,4.1,0,8.21,0,12.31,0,1.26-.13,2.43-1.41,3s-2.1-.25-2.83-1a5,5,0,0,0-4.09-1.46c-4.21.08-8.42.06-12.63,0-3.41,0-5.08-1.75-5.16-5.21,0-1.62,0-3.24,0-4.86.72-.57,1.54-.35,2.34-.31,0,1.51,0,3,0,4.53.07,2.84.61,3.43,3.4,3.47,3.88.05,7.76,0,11.64,0,1.85,0,3.63-.07,5.13,1.37.88.84,1.27.27,1.27-.76,0-3.88,0-7.76,0-11.64C63.43,42.72,62.24,41.92,60.31,42Z" fill="#37cefc"/></svg>