<svg id="圖層_1" data-name="圖層 1" xmlns="http://www.w3.org/2000/svg" viewBox="0 0 100 100"><title>iconnotes</title><ellipse cx="55.5" cy="59.5" rx="15.5" ry="13.82" fill="#fff9db"/><path d="M63.56,54.45H36.44A1.44,1.44,0,0,1,35,53V41a1.44,1.44,0,0,1,1.44-1.44H63.56A1.44,1.44,0,0,1,65,41V53A1.44,1.44,0,0,1,63.56,54.45ZM37.88,51.58H62.12V42.4H37.88Z" fill="#b3ab88"/><path d="M57.53,36.37H36.44a1.44,1.44,0,0,1,0-2.88h21.1a1.44,1.44,0,0,1,0,2.88Z" fill="#b3ab88"/><path d="M63.56,61.23H36.44a1.44,1.44,0,0,1,0-2.88H63.56a1.44,1.44,0,0,1,0,2.88Z" fill="#b3ab88"/><path d="M47,66.51H36.44a1.44,1.44,0,0,1,0-2.88H47a1.44,1.44,0,0,1,0,2.88Z" fill="#b3ab88"/></svg>