<svg id="圖層_1" data-name="圖層 1" xmlns="http://www.w3.org/2000/svg" viewBox="0 0 35 35"><title>icon-Setting</title><path d="M17.5,23.75a6.25,6.25,0,1,1,6.25-6.25A6.26,6.26,0,0,1,17.5,23.75Zm0-10a3.75,3.75,0,1,0,3.75,3.75A3.75,3.75,0,0,0,17.5,13.75Z" fill="#fff9db"/><path d="M18,34.5c-2.05,0-3.44-1.74-4.68-3.27a8.56,8.56,0,0,0-2-2.05,8.27,8.27,0,0,0-2.7-.47c-2-.16-4.35-.34-5.51-2.2s-.31-4,.44-5.92A8.26,8.26,0,0,0,4.28,18a8.57,8.57,0,0,0-1-2.7c-.86-1.82-1.82-3.88-.83-5.75S5.66,7.35,7.6,7a8.83,8.83,0,0,0,2.89-.76,8.83,8.83,0,0,0,2-2.27C13.58,2.4,14.86.57,16.92.5s3.54,1.7,4.8,3.27a8.56,8.56,0,0,0,2,2.05,8.27,8.27,0,0,0,2.7.47c2,.16,4.35.34,5.51,2.2h0c1.17,1.87.31,4-.44,5.92A8.26,8.26,0,0,0,30.72,17a8.57,8.57,0,0,0,1,2.7c.86,1.82,1.82,3.88.83,5.75S29.34,27.65,27.4,28a8.83,8.83,0,0,0-2.89.76,8.83,8.83,0,0,0-2,2.27c-1.13,1.61-2.41,3.44-4.47,3.51ZM17,3.34h0c-.64,0-1.53,1.29-2.24,2.31a10.57,10.57,0,0,1-2.77,3A10.57,10.57,0,0,1,8,9.84c-1.23.19-2.75.44-3.06,1s.32,2,.89,3.21a10.21,10.21,0,0,1,1.23,3.81,9.85,9.85,0,0,1-1,3.77c-.51,1.28-1.08,2.72-.67,3.37s2,.77,3.33.88a9.85,9.85,0,0,1,3.81.79,10.21,10.21,0,0,1,2.88,2.78c.84,1,1.76,2.22,2.49,2.21s1.53-1.29,2.24-2.31a10.57,10.57,0,0,1,2.77-3,10.57,10.57,0,0,1,4-1.15c1.23-.19,2.75-.44,3.06-1s-.32-2-.89-3.21a10.21,10.21,0,0,1-1.23-3.81,9.85,9.85,0,0,1,1-3.77c.51-1.28,1.08-2.72.67-3.37s-2-.77-3.33-.88a9.85,9.85,0,0,1-3.81-.79A10.21,10.21,0,0,1,19.5,5.55C18.67,4.51,17.73,3.34,17,3.34Z" fill="#b3ab88"/></svg>