<svg id="icon" xmlns="http://www.w3.org/2000/svg" viewBox="0 0 35 35"><title>menu-Collection</title><path d="M3.54,20.2c0-1.83,0-3.67,0-5.5,0-.85-.11-1.9,1.14-1.88.91,0,1.21.82,1.21,1.63q0,5.82,0,11.64c0,.78-.24,1.61-1.23,1.57S3.54,26.83,3.54,26Q3.54,23.11,3.54,20.2Z" fill="#fff9db"/><path d="M18.41,32.58c-2.05,0-4.11,0-6.16,0-3.59,0-5.36-2.37-4.44-5.75.19-.69.54-1.25,1.31-1.14.58.08.81.62.88,1.21.12,1-.46,2.29.6,3s2.31.32,3.48.33c3.46,0,6.92,0,10.38,0,1.31,0,2.27-.2,2.5-1.82.61-4.28,1.4-8.53,2-12.8.34-2.4.22-2.47-2.34-2.51-2.16,0-4.32,0-6.49,0-4,0-4.66-.63-4.86-4.63,0-.5.25-1.25-.27-1.42s-.82.6-1.05,1c-1.43,2.58-4.19,4.49-4,7.9A1,1,0,0,1,9,17.1a1.07,1.07,0,0,1-1.12-1,4.9,4.9,0,0,1,.5-3.76q3-4.45,6-8.86c.48-.7,1.08-1.43,2.13-1A2,2,0,0,1,17.61,4.7c0,1.41,0,2.81,0,4.22s.55,1.93,1.92,1.9c2.59-.05,5.19,0,7.78,0,3.42.05,4.55,1.28,4.06,4.58q-1,6.89-2.23,13.76c-.47,2.66-1.43,3.37-4.23,3.42C22.73,32.61,20.57,32.58,18.41,32.58Z" fill="#b3ab88"/></svg>