<svg id="icon" xmlns="http://www.w3.org/2000/svg" viewBox="0 0 75 75"><title>menu</title><path d="M54,70.42c-3.18-.06-6.37.32-9.32-1.56-3.23-2.06-5.13-4.82-5.31-8.62-.14-3-.11-6,0-9A10.6,10.6,0,0,1,49.76,41c2.65-.06,5.31,0,8,0,5.05-.16,8.6,2.22,10.29,6.78A23.46,23.46,0,0,1,68.21,63c-1.55,4.89-5.45,7.63-10.94,7.39C56.17,70.38,55.07,70.42,54,70.42Zm2.44-7.21c4.23-.05,5.35-1.14,5.39-5.26,0-2.1.07-4.21-.05-6.3a3.6,3.6,0,0,0-3.8-3.74c-2.54-.09-5.09-.08-7.63,0A3.55,3.55,0,0,0,46.5,51.6c-.11,2.65-.12,5.31,0,8a3.56,3.56,0,0,0,3.6,3.59C51.42,63.27,55.63,63.22,56.4,63.21Z" fill="#b3ab88"/><path d="M19.86,41c3.18.06,6.37-.32,9.32,1.56,3.23,2.06,5.13,4.82,5.31,8.62.14,3,.11,6,0,9A10.6,10.6,0,0,1,24.07,70.39c-2.65.06-5.31,0-8,0-5.05.16-8.6-2.22-10.29-6.78a23.46,23.46,0,0,1-.21-15.3c1.55-4.89,5.45-7.63,10.94-7.39C17.65,41,18.76,41,19.86,41Zm-2.44,7.21c-4.23.05-5.35,1.14-5.39,5.26,0,2.1-.07,4.21.05,6.3a3.6,3.6,0,0,0,3.8,3.74c2.54.09,5.09.08,7.63,0a3.55,3.55,0,0,0,3.81-3.71c.11-2.65.12-5.31,0-8a3.56,3.56,0,0,0-3.6-3.59C22.41,48.12,18.2,48.17,17.42,48.18Z" fill="#b3ab88"/><path d="M34.23,21.35c-.06,3.18.32,6.37-1.56,9.32C30.61,33.89,27.85,35.79,24,36c-3,.14-6,.11-9,0A10.6,10.6,0,0,1,4.8,25.55c-.06-2.65,0-5.31,0-8C4.61,12.54,7,9,11.55,7.3a23.46,23.46,0,0,1,15.3-.21c4.89,1.55,7.63,5.45,7.39,10.94C34.19,19.13,34.23,20.24,34.23,21.35ZM27,18.9c-.05-4.23-1.14-5.35-5.26-5.39-2.1,0-4.21-.07-6.3.05a3.6,3.6,0,0,0-3.74,3.8c-.09,2.54-.08,5.09,0,7.63a3.55,3.55,0,0,0,3.71,3.81c2.65.11,5.31.12,8,0A3.56,3.56,0,0,0,27,25.21C27.08,23.89,27,19.68,27,18.9Z" fill="#b3ab88"/><path d="M64.15,31.65c-2.29,2.2-4.27,4.73-7.69,5.48-3.74.83-7,.22-9.85-2.34-2.2-2-4.3-4.15-6.34-6.32a10.6,10.6,0,0,1,.1-14.65C42.2,11.9,44.15,10.1,46,8.16,49.43,4.48,53.62,3.66,58,5.68A23.46,23.46,0,0,1,69,16.35c2.36,4.56,1.54,9.25-2.51,13C65.69,30.06,64.93,30.87,64.15,31.65Zm-3.37-6.82c3-3,3-4.59.09-7.53-1.47-1.5-2.93-3-4.49-4.42a3.6,3.6,0,0,0-5.33,0c-1.86,1.74-3.65,3.54-5.4,5.39a3.55,3.55,0,0,0-.08,5.32c1.8,2,3.67,3.84,5.63,5.63a3.56,3.56,0,0,0,5.09,0C57.3,28.4,60.24,25.38,60.78,24.83Z" fill="#d0abf6"/></svg>