<svg id="icon" xmlns="http://www.w3.org/2000/svg" viewBox="0 0 100 100"><title>signOut</title><path d="M40.47,83.31c7,0,14.09,0,21.14,0,2.84,0,5.08-1.35,7.15-3,1.85-1.43,1.84-2.6.27-4.29s-3.43-3.43-5.12-5.17a12.68,12.68,0,0,1-1.75-2.11,3.53,3.53,0,0,1,.74-4.58c1.48-1.24,3.8-1.46,5.06-.33A81.84,81.84,0,0,1,75,70.58c.92,1,1.43.86,2.18.3a20,20,0,0,0,2.86-2.45,16.35,16.35,0,0,1,6-4,4.63,4.63,0,0,1,5.66,1,3.23,3.23,0,0,1,.22,4.33,13.7,13.7,0,0,1-2.09,1.76c-1.91,1.44-3.89,2.78-5.76,4.28a2.27,2.27,0,0,0-.36,3.55,36.49,36.49,0,0,0,3.91,3.88,5.75,5.75,0,0,1,2.29,5A2.85,2.85,0,0,1,88,91.18c-1.48.58-2.88.9-4.15-.33C82.2,89.24,80.6,87.58,78.94,86c-1.89-1.83-2.73-1.89-4.58.07-3.78,4-8.49,5.6-13.87,5.6H12.67c-3.93,0-5.43-1.4-5.25-5.38a28.57,28.57,0,0,1,4.2-13.88A33.31,33.31,0,0,1,26.36,59.6a25.14,25.14,0,0,0,3.52-2c1.27-.87,1.27-1.39.25-2.46-.88-.92-1.79-1.81-2.7-2.69a24.39,24.39,0,0,1-6.72-12.88c-.68-3.32-.22-6.93.33-10.35,1.32-8.22,6.21-14.41,14.19-18.3a27.2,27.2,0,0,1,16-2.33A23.4,23.4,0,0,1,64,14.75a28.2,28.2,0,0,1,8,12.18,12.31,12.31,0,0,1,.45,1.63,33.11,33.11,0,0,1,.65,4.36A28.37,28.37,0,0,1,72.78,37c0,.45-.21.89-.24,1.34-.34,4.85-2.43,8.9-5.38,12.68a22.29,22.29,0,0,1-5.31,5.13c-1.81,1.17-3.71,2.28-6,.84-2.1-1.33-2.64-3.48-1.09-5.48A11.12,11.12,0,0,1,57.41,49a15.49,15.49,0,0,0,6.41-8.58c2.35-7.18.71-13.53-4.53-18.75-3.19-3.17-7.12-5.28-11.92-4.94a11.17,11.17,0,0,1-1.39,0C37.33,16.25,30.46,23.34,29,30.52c-1.21,6.13-.21,12.15,4.91,16.69.95.84,1.82,1.85,2.79,2.55,2.33,1.66,2.65,2.6,2.54,4.74s-.07,4.16,0,6.24A2,2,0,0,1,38,62.86c-1.33.64-9.76,5.13-12.56,6.87a21.13,21.13,0,0,0-8.81,11,4,4,0,0,0-.23,1c-.09.91.1,1.61,1.24,1.58.81,0,1.62,0,2.43,0H40.47Z" fill="#757159"/></svg>