<svg id="icon" xmlns="http://www.w3.org/2000/svg" viewBox="0 0 50 50"><title>temp-novel</title><ellipse cx="30.5" cy="34.5" rx="15.5" ry="13.82" fill="#fff9db"/><path d="M40.47,37a44.37,44.37,0,0,0-16.63,0q0-12,0-23.93a44.37,44.37,0,0,1,16.63,0Z" fill="none" stroke="#b3ab88" stroke-linecap="round" stroke-linejoin="round" stroke-width="3.02"/><path d="M27.68,17.84a19.81,19.81,0,0,1,9.85,0" fill="none" stroke="#b3ab88" stroke-linecap="round" stroke-linejoin="round" stroke-width="1.8"/><path d="M27.68,21.15a19.81,19.81,0,0,1,9.85,0" fill="none" stroke="#b3ab88" stroke-linecap="round" stroke-linejoin="round" stroke-width="1.8"/><path d="M27.68,24.45a19.81,19.81,0,0,1,9.85,0" fill="none" stroke="#b3ab88" stroke-linecap="round" stroke-linejoin="round" stroke-width="1.8"/><path d="M27.68,27.76a19.81,19.81,0,0,1,9.85,0" fill="none" stroke="#b3ab88" stroke-linecap="round" stroke-linejoin="round" stroke-width="1.8"/><path d="M27.68,31.35a13.34,13.34,0,0,1,6.57-.55" fill="none" stroke="#b3ab88" stroke-linecap="round" stroke-linejoin="round" stroke-width="1.8"/><path d="M24.13,36.93c-4.87,1.91-9.73-1.91-14.6,0V13c4.87-1.91,9.73,1.91,14.6,0Z" fill="none" stroke="#b3ab88" stroke-linecap="round" stroke-linejoin="round" stroke-width="3.03"/><path d="M13,17.27a7.36,7.36,0,0,1,3.38.36" fill="none" stroke="#b3ab88" stroke-linecap="round" stroke-linejoin="round" stroke-width="1.6"/><path d="M13,25.2a12.09,12.09,0,0,1,3.4.12" fill="none" stroke="#b3ab88" stroke-linecap="round" stroke-linejoin="round" stroke-width="1.6"/><path d="M18.94,21.44a18.4,18.4,0,0,1-2.44-.22A18.71,18.71,0,0,0,14,21a7.57,7.57,0,0,0-1.11.08h0A.49.49,0,0,1,12.5,21a.4.4,0,0,1-.12-.3A.75.75,0,0,1,13,20,7.43,7.43,0,0,1,14,19.89a18.53,18.53,0,0,1,2.44.22,18.67,18.67,0,0,0,2.48.22,7.6,7.6,0,0,0,1.11-.08h0c.34,0,.51.16.51.41a.74.74,0,0,1-.58.7A7.39,7.39,0,0,1,18.94,21.44Z" fill="#b3ab88"/><path d="M14,20a18.32,18.32,0,0,1,2.42.22,18.79,18.79,0,0,0,2.5.22,7.77,7.77,0,0,0,1.13-.08h.07a.31.31,0,0,1,.21.07.25.25,0,0,1,.07.19.59.59,0,0,1-.44.55,7.16,7.16,0,0,1-1,.07,18.32,18.32,0,0,1-2.42-.22,18.8,18.8,0,0,0-2.5-.22,7.77,7.77,0,0,0-1.13.08h-.07a.25.25,0,0,1-.28-.26.59.59,0,0,1,.44-.55A7.16,7.16,0,0,1,14,20m0-.31a7.52,7.52,0,0,0-1.09.07.9.9,0,0,0-.71.86.56.56,0,0,0,.59.57h.12A7.51,7.51,0,0,1,14,21.15c1.64,0,3.28.44,4.92.44A7.52,7.52,0,0,0,20,21.52a.9.9,0,0,0,.71-.86.56.56,0,0,0-.59-.57H20a7.51,7.51,0,0,1-1.09.07c-1.64,0-3.28-.44-4.92-.44Z" fill="#b3ab88"/><path d="M18.94,29.06a18.37,18.37,0,0,1-2.44-.22A18.68,18.68,0,0,0,14,28.62a7.6,7.6,0,0,0-1.11.08h0a.5.5,0,0,1-.36-.11.4.4,0,0,1-.12-.3.75.75,0,0,1,.58-.7A7.4,7.4,0,0,1,14,27.51a18.4,18.4,0,0,1,2.44.22,18.71,18.71,0,0,0,2.48.22,7.57,7.57,0,0,0,1.11-.08h0c.35,0,.51.16.51.41A.74.74,0,0,1,20,29,7.42,7.42,0,0,1,18.94,29.06Z" fill="#b3ab88"/><path d="M14,27.66a18.32,18.32,0,0,1,2.42.22,18.79,18.79,0,0,0,2.5.22A7.77,7.77,0,0,0,20.08,28h.07a.31.31,0,0,1,.21.07.25.25,0,0,1,.07.19.59.59,0,0,1-.44.55,7.16,7.16,0,0,1-1,.07,18.33,18.33,0,0,1-2.42-.22,18.79,18.79,0,0,0-2.5-.22,7.77,7.77,0,0,0-1.13.08h-.07a.25.25,0,0,1-.28-.26.59.59,0,0,1,.44-.55,7.16,7.16,0,0,1,1-.07m0-.31a7.52,7.52,0,0,0-1.09.07.9.9,0,0,0-.71.86.56.56,0,0,0,.59.57h.12A7.52,7.52,0,0,1,14,28.77c1.64,0,3.28.44,4.92.44A7.52,7.52,0,0,0,20,29.14a.9.9,0,0,0,.71-.86.56.56,0,0,0-.59-.57H20a7.51,7.51,0,0,1-1.09.07c-1.64,0-3.28-.44-4.92-.44Zm6.72.93h0Zm-8.52,0h0Z" fill="#b3ab88"/><path d="M18.94,32.09a18.4,18.4,0,0,1-2.44-.22A18.71,18.71,0,0,0,14,31.64a7.57,7.57,0,0,0-1.11.08h0a.49.49,0,0,1-.36-.11.4.4,0,0,1-.12-.3.75.75,0,0,1,.58-.7A7.43,7.43,0,0,1,14,30.54a18.53,18.53,0,0,1,2.44.22,18.67,18.67,0,0,0,2.48.22,7.6,7.6,0,0,0,1.11-.08h0c.35,0,.51.16.51.41A.74.74,0,0,1,20,32,7.39,7.39,0,0,1,18.94,32.09Z" fill="#b3ab88"/><path d="M14,30.69a18.33,18.33,0,0,1,2.42.22,18.8,18.8,0,0,0,2.5.22,7.77,7.77,0,0,0,1.13-.08h.07a.31.31,0,0,1,.21.07.25.25,0,0,1,.07.19.59.59,0,0,1-.44.55,7.16,7.16,0,0,1-1,.07,18.33,18.33,0,0,1-2.42-.22,18.8,18.8,0,0,0-2.5-.22,7.77,7.77,0,0,0-1.13.08h-.07a.25.25,0,0,1-.28-.26.59.59,0,0,1,.44-.55,7.16,7.16,0,0,1,1-.07m0-.31a7.52,7.52,0,0,0-1.09.07.9.9,0,0,0-.71.86.56.56,0,0,0,.59.57h.12A7.51,7.51,0,0,1,14,31.8c1.64,0,3.28.44,4.92.44A7.52,7.52,0,0,0,20,32.17a.9.9,0,0,0,.71-.86.56.56,0,0,0-.59-.57H20a7.51,7.51,0,0,1-1.09.07c-1.64,0-3.28-.44-4.92-.44Z" fill="#b3ab88"/></svg>