<svg id="icon" xmlns="http://www.w3.org/2000/svg" viewBox="0 0 50 50"><title>temp-diary</title><ellipse cx="30.5" cy="34.5" rx="15.5" ry="13.82" fill="#fff9db"/><path d="M25,39.62c-3.95,0-7.9-.1-11.84,0A3.82,3.82,0,0,1,9,35.55c.13-5.26,0-10.52.06-15.78,0-1.49.72-1.81,3.06-1.54,1,.12,1.41.7,1.21,1.88,0,.21-.06.52-.19.61-1.52.89-1.09,2.36-1.1,3.67q0,4.6,0,9.21c0,1.68.45,2.19,1.73,2.22s1.83-.54,1.83-2.29c0-7,0-13.92,0-20.88,0-2.26.05-2.31,2.3-2.31H38.8c2.06,0,2.16.1,2.16,2.12,0,7.67-.07,15.35,0,23a3.86,3.86,0,0,1-4.21,4.19C32.85,39.51,28.9,39.62,25,39.62ZM18.49,24.89h0q0,.74,0,1.48c0,2.84,0,5.69,0,8.53,0,.8,0,1.69,1.26,1.69,5.42,0,10.83,0,16.25,0,1.45,0,2-.7,2.05-2.21q0-9.6,0-19.2c0-1.61-.22-1.74-1.85-1.74H20.62c-2,0-2.1.1-2.12,2.15C18.47,18.65,18.49,21.77,18.49,24.89Z" fill="#b3ab88"/><path d="M28.12,31.62c-1.86,0-3.72,0-5.58,0-1,0-1.56-.29-1.56-1.39s.6-1.39,1.57-1.38q5.74,0,11.48,0c1,0,1.56.29,1.56,1.39S35,31.64,34,31.63C32.06,31.61,30.09,31.62,28.12,31.62Z" fill="#b3ab88"/><path d="M28.29,21.1c-1.91,0-3.83,0-5.74,0-1,0-1.57-.28-1.57-1.38s.59-1.4,1.56-1.39q5.74,0,11.48,0c1,0,1.57.28,1.57,1.38S35,21.12,34,21.1C32.12,21.08,30.21,21.1,28.29,21.1Z" fill="#b3ab88"/><path d="M28.19,26.36c-1.91,0-3.83,0-5.74,0-.91,0-1.45-.31-1.47-1.31s.48-1.46,1.5-1.46q5.82,0,11.64,0c.91,0,1.45.31,1.47,1.31s-.48,1.47-1.5,1.46C32.13,26.34,30.16,26.36,28.19,26.36Z" fill="#b3ab88"/></svg>