<svg id="圖層_1" data-name="圖層 1" xmlns="http://www.w3.org/2000/svg" viewBox="0 0 448 224"><title>DTNS-logo</title><path d="M23.09,161.14q-2.72-2-2.72-4.43a5,5,0,0,1,2-4.07,455.21,455.21,0,0,1-3.44-59.37q0-10.13.9-39.46a9.47,9.47,0,0,1,3.71-4.71,9.33,9.33,0,0,1,5.34-2,14.52,14.52,0,0,1,3.08.18q25.88,7.24,45.07,28t20.09,49.68q0,31.86-26.43,40a53.85,53.85,0,0,1-16,2.35A75.92,75.92,0,0,1,39.93,166a8.8,8.8,0,0,1,.72,3.89q0,2.44-3,4.71a11.37,11.37,0,0,1-7.06,2.26q-4.07,0-5.16-4.89ZM34,91.82a475.51,475.51,0,0,0,3.62,60.09q4.34,1.27,14.66,1.27a57.76,57.76,0,0,0,19.82-3.44q9.5-3.44,10-10.14.54-5.07.54-7.78,0-23.53-12.58-41.63T34.86,62.68Q33.95,84,34,91.82Z" fill="#fff9db"/><path d="M129.7,49.46,203,48.38q5.25,1.63,5.25,5.25,0,9.05-7.42,9.05-13.58,0-28.78.72-.91,15.57-.91,23.44v10l.72,63.53q0,5.61-2.9,6.52a17.46,17.46,0,0,1-5.43.72q-5.25,0-5.79-6-1.09-13.94-1.09-52t1.09-45.88q-3.8.18-11.22.18t-18.46-.18A5.77,5.77,0,0,1,123.55,62a6.38,6.38,0,0,1-1.63-4.43,7.75,7.75,0,0,1,2.26-5.16A8.45,8.45,0,0,1,129.7,49.46Z" fill="#fff9db"/><path d="M311.06,47.11a7.15,7.15,0,0,1,5.25,2.44,8,8,0,0,1,2.35,5.7q0,70.77.63,85.52t.63,15.11a14.09,14.09,0,0,1-2.17,7.51q-2.17,3.53-4.8,3.53a21.75,21.75,0,0,1-4-.27,20.36,20.36,0,0,1-2.44-.63,5.69,5.69,0,0,1-2.17-1.45l-1.81-1.81a14.11,14.11,0,0,1-1.9-2.81l-1.9-3.35q-.73-1.27-2.26-4.44t-6.7-12.94q-5.16-9.77-9.32-17.56-14.3-26.24-26.61-41.45,0,58.83-3.26,81.63-.54,4.34-6.7,4.34a7.68,7.68,0,0,1-4.8-1.45q-1.9-1.45-1.9-4.71t1.36-35.84q1.36-32.58,1.36-40.63V73.36q0-13,2-14.66a6.49,6.49,0,0,1,4.16-1.63q10,0,30.41,32.58,4,6.34,15.2,26.52t13.39,24.89l-2.17-75.12q0-15.56,3.44-17.74A9,9,0,0,1,311.06,47.11Z" fill="#fff9db"/><path d="M397.58,47.11q11.76,0,20,4t8.24,10.14a8.15,8.15,0,0,1-1.36,4.71,4.51,4.51,0,0,1-4,2q-2.63,0-11.31-4.07t-15.84-4.07q-7.15,0-14.75,4.52t-7.6,11q0,8.87,9.23,13,6.88,3.08,19.73,5.52t21,10q8.14,7.51,8.14,22.72,0,23.17-13.94,34.21-7.78,6.16-22,6.15t-28.33-7.78q-9.23-4.89-9.23-9.77a7.07,7.07,0,0,1,1.54-4,12,12,0,0,1,4.25-3.62,5.51,5.51,0,0,1,5-.45q2.26,1,7.33,3.53t7.42,3.44a40.24,40.24,0,0,0,14.3,2.9q6.69,0,12.94-6.61a22.69,22.69,0,0,0,6.25-16.2q0-12.67-12.67-17.74a63.41,63.41,0,0,0-13.94-3.8q-16.11-2.89-24.25-9.68t-8.14-20.54q0-13.75,11.76-21.63T397.58,47.11Z" fill="#fff9db"/></svg>