    <svg
      xmlns="http://www.w3.org/2000/svg"
      viewBox="0 0 190.67 72"
    >
      <title>Discovery</title>
      <path
        d="M27.24,27.24q0,.16.29.16t1.83-.27a20.37,20.37,0,0,1,3-.29,25.89,25.89,0,0,0-2.55.82q-1.07.42-2.2.92t-1.63.67a2.71,2.71,0,0,1-.85.17q-1.15,0-1.15-1.48,0-3.82,1.93-5.37a14.9,14.9,0,0,1,2.53-1.49,35.44,35.44,0,0,1,3.93-1.64,38.75,38.75,0,0,1,4.82-1.34,24.8,24.8,0,0,1,5.19-.56,14.66,14.66,0,0,1,4.83.76,10.25,10.25,0,0,1,3.68,2.15,9.22,9.22,0,0,1,2.28,3.38,12,12,0,0,1,.8,4.49,13.91,13.91,0,0,1-2.19,7.37A22.65,22.65,0,0,1,45.9,42a30.24,30.24,0,0,1-8.23,4.32,27.36,27.36,0,0,1-9,1.59,3.88,3.88,0,0,1-1.31-.18,1.15,1.15,0,0,1-.69-.71,4.59,4.59,0,0,1-.2-1.56,8.86,8.86,0,0,1,.2-2.09,11.55,11.55,0,0,1,.67-1.86q3.23-7.16,11.25-18a25.11,25.11,0,0,0-3.55.69q-1.93.51-3.66,1.11a31,31,0,0,0-2.92,1.17Q27.24,27,27.24,27.24Zm12-3.91s0,.2.09.51a4.28,4.28,0,0,1,.09.8,3.29,3.29,0,0,1-.53,1.45q-.53.93-2.08,3.31t-2.65,4.18q-1.1,1.8-2.61,4.63-.47.9-.65,1.21l-.57,1a8.46,8.46,0,0,0-.57,1.24,2.63,2.63,0,0,0-.18.79.84.84,0,0,0,.64.82,5.53,5.53,0,0,0,1.83.24,20.91,20.91,0,0,0,6.47-1.11,26.52,26.52,0,0,0,6.41-3.09,18.07,18.07,0,0,0,4.8-4.47,8.79,8.79,0,0,0,1.8-5.21,5.58,5.58,0,0,0-2.27-4.77Q47,23.2,42.63,23.2,40.81,23.2,39.21,23.33Z"
        fill="#231815"
      />
      <path
        d="M65.67,39.91v1.64a22.93,22.93,0,0,1-4.07,4.23,5.74,5.74,0,0,1-3.21,1.43,2.91,2.91,0,0,1-2.74-1.93,9.89,9.89,0,0,1-.9-4.22,7.57,7.57,0,0,1,.18-1.67,6.28,6.28,0,0,1,.43-1.31q.25-.52.92-1.62,3.19-5,5.84-5,1.37,0,1.37,1.06a5.32,5.32,0,0,1-.89,2.25A9.88,9.88,0,0,1,61,37a35.46,35.46,0,0,0-2.55,2.63,2.62,2.62,0,0,0-.6,1.68,1.73,1.73,0,0,0,.61,1.35,2.28,2.28,0,0,0,1.57.54,4.55,4.55,0,0,0,2.32-.77A28.65,28.65,0,0,0,65.67,39.91Zm-1.53-10a1.63,1.63,0,0,1-1.07-.43,1.35,1.35,0,0,1-.51-1.08,3.73,3.73,0,0,1,.94-2.2,2.58,2.58,0,0,1,2-1.21,1.59,1.59,0,0,1,1.12.42,1.56,1.56,0,0,1,.45,1.2,3.58,3.58,0,0,1-.92,2.13A2.56,2.56,0,0,1,64.15,29.87Z"
        fill="#231815"
      />
      <path
        d="M65.38,40.54V40q5.79-6.11,8-8.56.49-2.76,2.38-2.76a2.27,2.27,0,0,1,1,.27l.13.43a2.52,2.52,0,0,0-.09.76,7.17,7.17,0,0,0,.33,1.58q.33,1.16.51,1.94a8,8,0,0,1,.18,1.77,6.32,6.32,0,0,1-.67,2.84,9.65,9.65,0,0,1-2,2.61,21.21,21.21,0,0,1-3.3,2.55,8.25,8.25,0,0,0,1.28.13,5,5,0,0,0,2-.46,12.48,12.48,0,0,0,2.18-1.24q1.11-.77,2.59-2v1.5a33.5,33.5,0,0,1-5.14,4.26,7.64,7.64,0,0,1-3.91,1.45A5.45,5.45,0,0,1,67,45.28a4.82,4.82,0,0,1-1.31-2.07A11,11,0,0,1,65.38,40.54Zm8.38-3.44-.4-3.28q-1.39,1.57-6,6a3.8,3.8,0,0,1,1.84.79,12.44,12.44,0,0,1,1.39,1.91A5.44,5.44,0,0,0,73,40.84a4.84,4.84,0,0,0,.82-3q0-.22,0-.4T73.76,37.1Z"
        fill="#231815"
      />
      <path
        d="M93.34,40v1.5q-2.4,2.36-3.92,3.66a16.84,16.84,0,0,1-2.83,2,5.34,5.34,0,0,1-2.57.72,3.24,3.24,0,0,1-2.27-1,6.59,6.59,0,0,1-1.62-2.56A9.62,9.62,0,0,1,79.55,41a5.42,5.42,0,0,1,.67-2.72,15.56,15.56,0,0,1,2.61-3.08,25.64,25.64,0,0,1,4.26-3.47,6.55,6.55,0,0,1,3.09-1.22,1.87,1.87,0,0,1,1.37.56,1.92,1.92,0,0,1,.56,1.42,4.71,4.71,0,0,1-.74,2,11.57,11.57,0,0,1-1.66,2.3q-.92,1-1.46,1t-.58-.63q0-.18,0-.34t0-.31c0-.18-.06-.28-.19-.3a.63.63,0,0,0-.46.17Q84.81,37.93,84,38.57a6.73,6.73,0,0,0-1.31,1.29,2.26,2.26,0,0,0-.48,1.37A2.87,2.87,0,0,0,83,43.39a3.05,3.05,0,0,0,2.22.83,7.39,7.39,0,0,0,3.4-1.09A36.93,36.93,0,0,0,93.34,40Z"
        fill="#231815"
      />
      <path
        d="M107.7,39.86v1.5a11.88,11.88,0,0,1-2.38,1.8,5.28,5.28,0,0,1-2.58.36Q99.81,47,97.59,47a3.57,3.57,0,0,1-2.29-.83,5.75,5.75,0,0,1-1.65-2.27A8,8,0,0,1,93,40.67a6.77,6.77,0,0,1,1-3.19,14.29,14.29,0,0,1,2.47-3.27,14,14,0,0,1,3.25-2.45,6.84,6.84,0,0,1,3.21-.93,3.55,3.55,0,0,1,1.66.33,1,1,0,0,1,.61.91,1.67,1.67,0,0,1-.52,1,1.91,1.91,0,0,1,1.17.6,2.64,2.64,0,0,1,.31,1.52,9.61,9.61,0,0,1-.51,2.72A13.56,13.56,0,0,1,104.26,41l.4.4H105a1.63,1.63,0,0,0,.75-.19,5,5,0,0,0,.66-.4ZM103.07,34q-1.86,1.12-3.19,2a15.4,15.4,0,0,0-2.25,1.84,5,5,0,0,0-1.24,1.88q-.56,2.52-.56,2.72,0,1.48,2.07,1.48,1,0,3.23-1.66a5.93,5.93,0,0,1-.38-2,7.78,7.78,0,0,1,.58-2.89A23.87,23.87,0,0,1,103.07,34Z"
        fill="#231815"
      />
      <path
        d="M110.59,40l-.4,1.89a3.33,3.33,0,0,0-.09.81q0,1.21,1,1.21t4.69-3.77a7.35,7.35,0,0,1,1.09-3.37,18.43,18.43,0,0,1,2.36-3.35q1.29-1.44,1.92-1.44,1,0,1,1.3a6.22,6.22,0,0,1-.38,1.92,14.41,14.41,0,0,1-1.12,2.45,22.54,22.54,0,0,1-1.82,2.71q.56,1,1.15,1a2.19,2.19,0,0,0,1.09-.35,13.23,13.23,0,0,0,1.49-1.07v1.5a12.52,12.52,0,0,1-2,1.35,4.25,4.25,0,0,1-1.88.36,4.46,4.46,0,0,1-1.62-.61,47,47,0,0,1-3.73,3.63,4.15,4.15,0,0,1-2.34,1.2,3.11,3.11,0,0,1-2.64-1.85,7.89,7.89,0,0,1-1.09-4.08q0-3,3.37-7.17a10.34,10.34,0,0,1,1.63-1.72,2.29,2.29,0,0,1,1.4-.46,3.36,3.36,0,0,1,1.28.25q.61.25.61.58a6.8,6.8,0,0,1-1.5,3.29A18,18,0,0,1,110.59,40Z"
        fill="#231815"
      />
      <path
        d="M126.11,40.72v.56a3,3,0,0,0,.65,2.07,2.16,2.16,0,0,0,1.71.74,5.66,5.66,0,0,0,2.28-.52,12.46,12.46,0,0,0,2.35-1.37q1.17-.85,2.85-2.29v1.37A27.87,27.87,0,0,1,131.19,46a7.59,7.59,0,0,1-4.51,1.63A3.76,3.76,0,0,1,123.51,46a6.9,6.9,0,0,1-1.17-4.25,8.45,8.45,0,0,1,1.1-4.28A16.25,16.25,0,0,1,127,33.46a13.88,13.88,0,0,1,3.39-2.2,7.6,7.6,0,0,1,3-.74,2.65,2.65,0,0,1,1.67.48,1.73,1.73,0,0,1,.62,1.45,4.67,4.67,0,0,1-1.06,2.82,12.18,12.18,0,0,1-3.22,2.79A33,33,0,0,1,126.11,40.72Zm.22-1.46a12.79,12.79,0,0,0,3.46-2,10,10,0,0,0,2.12-2.23,3.51,3.51,0,0,0,.69-1.56q0-.52-.47-.52a3.23,3.23,0,0,0-1.31.52A10.86,10.86,0,0,0,129,34.86a9.92,9.92,0,0,0-1.67,2A6.31,6.31,0,0,0,126.34,39.26Z"
        fill="#231815"
      />
      <path
        d="M135.73,41.64V40.18a22.07,22.07,0,0,0,1.84-2.45,2.47,2.47,0,0,1-1-.61A1.56,1.56,0,0,1,136.2,36a4.55,4.55,0,0,1,.67-2,11.73,11.73,0,0,1,1.66-2.31,5.21,5.21,0,0,1,1.8-1.39,1.36,1.36,0,0,1,.61-.16q.45,0,.45.43a4.26,4.26,0,0,1-.7,1.55,53.4,53.4,0,0,1,5.84-.72,1.63,1.63,0,0,1,.65.09,1.58,1.58,0,0,1,.63.94,4.67,4.67,0,0,1,.25,1.48,1.74,1.74,0,0,1-.42,1,20.39,20.39,0,0,1-1.43,1.61,13.37,13.37,0,0,0-2,2.79,5.5,5.5,0,0,0-.81,2.27q0,1.06,1.3,1.06t4.76-2.79v1.5q-1.86,2-3.08,3.08a16.47,16.47,0,0,1-2.25,1.79,3.53,3.53,0,0,1-1.84.66,1.88,1.88,0,0,1-1.57-.86,4.22,4.22,0,0,1-.63-2.5,6,6,0,0,1,.49-2.2,15.25,15.25,0,0,1,1.45-2.68,32.93,32.93,0,0,1,2.15-2.89l-1.42.28-1.66.3-1.35.25A16.2,16.2,0,0,1,135.73,41.64Z"
        fill="#231815"
      />
      <path
        d="M159.74,40.79l-4,3.39q-2.85,2.49-3.82,2.49t-1.84-2a8.34,8.34,0,0,1-1-3.52,5.34,5.34,0,0,1,.39-2.17,15.57,15.57,0,0,1,1.36-2.3,30.79,30.79,0,0,1,2.63-3.23,19,19,0,0,1,2.22-2.06,3,3,0,0,1,1.35-.73,1.62,1.62,0,0,1,1.18.63,1.93,1.93,0,0,1,.57,1.3A3.08,3.08,0,0,1,158.2,34a19.85,19.85,0,0,1-2,2.39,43.52,43.52,0,0,1-3.72,3.47l-.43,1.24a1.44,1.44,0,0,0-.18.63.54.54,0,0,0,.61.61,8.46,8.46,0,0,0,3-1.59,37.41,37.41,0,0,0,5-4.29q1.06-1.06,1.75-1.86T163.53,33a11.53,11.53,0,0,1,.93-1.07,1.17,1.17,0,0,1,.66-.38A.84.84,0,0,1,166,32a3.23,3.23,0,0,1,.31,1.59,3.17,3.17,0,0,1-.54,1.52q-.54.91-2,3.1t-3,4.54q-1.47,2.35-3,5.29l1.38-1.35L162,44.07q1.46-1.39,2.4-2.23t2.36-2v1.5q-3,3.26-5.49,6.18t-3.8,4.67l-1.56,2q-.61.79-1.09,1.47a13.28,13.28,0,0,1-.81,1.06q-.33.37-.53.37-.47,0-.84-.93a4.55,4.55,0,0,1-.37-1.65,2.52,2.52,0,0,1,.25-1.15A123.53,123.53,0,0,1,159.74,40.79Z"
        fill="#231815"
      />
    </svg>