<svg id="圖層_1" data-name="圖層 1" xmlns="http://www.w3.org/2000/svg" viewBox="0 0 190.67 72">
  <title>Notes</title>
  <path d="M61.16,38.29q4-6.58,6-10.37t2-4.82a.82.82,0,0,0-.27-.63.9.9,0,0,0-.63-.25,17,17,0,0,0-3.93,1.35q-2.67,1.12-3.91,1.79T57,27.26a11.57,11.57,0,0,1-2.48,1.24q-.63,0-.63-.88,0-1.66,2.18-4.47a19.66,19.66,0,0,1,5.86-4.92q.45-.29.45,0,0,.11-.54.52a8.84,8.84,0,0,0-1,.82A7.15,7.15,0,0,0,60,20.86q4.72-2.36,6.93-3.32a9.8,9.8,0,0,1,3.78-1,3.6,3.6,0,0,1,2.16.57,1.92,1.92,0,0,1,.79,1.65,7.9,7.9,0,0,1-.75,2.74,44.71,44.71,0,0,1-2.19,4.37Q69.25,28.48,67.75,31l-5.4,9.1q4.36-5.46,8-9.55t6.38-6.65A41.83,41.83,0,0,1,81.33,20a5.9,5.9,0,0,1,2.74-1.29q.31,0,.74.6a6.73,6.73,0,0,1,.76,1.45,4,4,0,0,1,.34,1.39,6.37,6.37,0,0,1-.75,2.94,28.37,28.37,0,0,1-2.24,3.5q-4.22,5.71-6.17,9a11.31,11.31,0,0,0-1.94,5.28q0,1.51,1.57,1.5a3.58,3.58,0,0,0,1.68-.54,16,16,0,0,0,2.31-1.66q1.35-1.12,2.72-2.45l0,1.75q-1.93,2-3.46,3.38t-2.89,2.46a15.17,15.17,0,0,1-2.44,1.59,4.34,4.34,0,0,1-1.89.54,2.39,2.39,0,0,1-1.87-.8,3,3,0,0,1-.71-2.1,10.25,10.25,0,0,1,.53-2.93,28.37,28.37,0,0,1,1.62-4q1.09-2.25,2.7-4.87t3.63-5.48q2-2.83,2-3.64,0-.47-.49-.47-2,0-9.12,8-.45.49-1.56,1.83T66.9,37.87l-2.59,3.38-2.92,3.81q-.7.92-1.19.92a2.4,2.4,0,0,1-1.42-.88q-.88-.88-.88-1.28a7.19,7.19,0,0,1,1.25-2.36Q60.4,39.57,61.16,38.29Z"
        fill="#231815" />
  <path d="M97.41,39.86v1.5A11.88,11.88,0,0,1,95,43.17a5.27,5.27,0,0,1-2.58.36Q89.53,47,87.31,47A3.57,3.57,0,0,1,85,46.15a5.75,5.75,0,0,1-1.65-2.27,8,8,0,0,1-.62-3.21,6.78,6.78,0,0,1,1-3.19,14.27,14.27,0,0,1,2.47-3.27,14,14,0,0,1,3.25-2.45,6.84,6.84,0,0,1,3.21-.93,3.54,3.54,0,0,1,1.66.33,1,1,0,0,1,.61.91,1.67,1.67,0,0,1-.52,1,1.91,1.91,0,0,1,1.17.6,2.64,2.64,0,0,1,.31,1.52,9.61,9.61,0,0,1-.5,2.72A13.56,13.56,0,0,1,94,41l.4.4h.34a1.63,1.63,0,0,0,.75-.19,4.92,4.92,0,0,0,.66-.4ZM92.79,34q-1.86,1.12-3.19,2a15.43,15.43,0,0,0-2.25,1.84,5,5,0,0,0-1.24,1.88q-.56,2.52-.56,2.72,0,1.48,2.07,1.48,1,0,3.23-1.66a5.93,5.93,0,0,1-.38-2,7.78,7.78,0,0,1,.58-2.89A23.92,23.92,0,0,1,92.79,34Z"
        fill="#231815" />
  <path d="M105.25,28.25h1a12.52,12.52,0,0,1,2.16-3,3.16,3.16,0,0,1,2.2-.89q1.23,0,1.24.56a4.49,4.49,0,0,1-1,1.46,19.46,19.46,0,0,0-1.46,2l1.36.16.93.11a35.31,35.31,0,0,1-3.21,4.87l-1.06-.08-.86-.07-1.07-.08q-1.21,2-2,3.49a19.49,19.49,0,0,0-1.26,2.82,7.5,7.5,0,0,0-.44,2.43q0,1.55,1.24,1.55a4.47,4.47,0,0,0,2.24-.91q1.38-.91,3.69-2.8v1.5Q102.85,48,100,48a2,2,0,0,1-1.63-.79,3.17,3.17,0,0,1-.62-2,7,7,0,0,1,.35-2Q98.4,42,99.3,39.71l-.59.53-.52.47-.51.45-.54.48V40.09a34.8,34.8,0,0,0,5.71-6.94l-.63,0h-.7a8,8,0,0,0-2,.18l-.5.15a1.25,1.25,0,0,1-.33.08c-.06,0-.09,0-.09-.13a4.94,4.94,0,0,1,.92-2.22,8.18,8.18,0,0,1,1.4-1.86,3.46,3.46,0,0,1,1.62-.82A13,13,0,0,1,105.25,28.25Z"
        fill="#231815" />
  <path d="M112.46,40.72v.56a3,3,0,0,0,.65,2.07,2.16,2.16,0,0,0,1.71.74,5.67,5.67,0,0,0,2.28-.52,12.44,12.44,0,0,0,2.35-1.37q1.17-.85,2.85-2.29v1.37A27.87,27.87,0,0,1,117.54,46,7.59,7.59,0,0,1,113,47.59,3.76,3.76,0,0,1,109.86,46a6.91,6.91,0,0,1-1.17-4.25,8.45,8.45,0,0,1,1.1-4.28,16.25,16.25,0,0,1,3.59-4.05,13.88,13.88,0,0,1,3.39-2.2,7.6,7.6,0,0,1,3-.74,2.65,2.65,0,0,1,1.67.48,1.73,1.73,0,0,1,.62,1.45A4.67,4.67,0,0,1,121,35.27a12.19,12.19,0,0,1-3.22,2.79A33,33,0,0,1,112.46,40.72Zm.22-1.46a12.78,12.78,0,0,0,3.46-2,10,10,0,0,0,2.12-2.23,3.52,3.52,0,0,0,.68-1.56q0-.52-.47-.52a3.23,3.23,0,0,0-1.31.52,10.86,10.86,0,0,0-1.84,1.35,9.91,9.91,0,0,0-1.67,2A6.31,6.31,0,0,0,112.69,39.26Z"
        fill="#231815" />
  <path d="M122.21,40.54V40q5.79-6.11,8-8.56.49-2.76,2.38-2.76a2.27,2.27,0,0,1,1,.27l.13.43a2.54,2.54,0,0,0-.09.76,7.15,7.15,0,0,0,.33,1.58q.33,1.16.5,1.94a8,8,0,0,1,.18,1.77,6.32,6.32,0,0,1-.67,2.84,9.65,9.65,0,0,1-2,2.61,21.21,21.21,0,0,1-3.3,2.55,8.25,8.25,0,0,0,1.28.13,5,5,0,0,0,2-.46,12.48,12.48,0,0,0,2.18-1.24q1.11-.77,2.59-2v1.5a33.48,33.48,0,0,1-5.14,4.26,7.64,7.64,0,0,1-3.91,1.45,5.45,5.45,0,0,1-3.91-1.8,4.82,4.82,0,0,1-1.31-2.07A11,11,0,0,1,122.21,40.54Zm8.38-3.44-.4-3.28q-1.39,1.57-6,6a3.8,3.8,0,0,1,1.84.79,12.4,12.4,0,0,1,1.39,1.91,5.44,5.44,0,0,0,2.35-1.72,4.85,4.85,0,0,0,.82-3c0-.15,0-.28,0-.4S130.6,37.22,130.59,37.1Z"
        fill="#231815" />
</svg>