<svg id="圖層_1" data-name="圖層 1" xmlns="http://www.w3.org/2000/svg" viewBox="0 0 190.67 72">
  <title>Share</title>
  <path d="M72.74,40.49a5.77,5.77,0,0,0-1.68-1.86,9.81,9.81,0,0,0-2.53-1.34,16.37,16.37,0,0,0-2.93-.75,23.77,23.77,0,0,1-8.47-2.94,2.23,2.23,0,0,1-.72-.76A2.06,2.06,0,0,1,56,31.71a12.46,12.46,0,0,1,.66-4,8.53,8.53,0,0,1,1.7-3.11q1.66-1.86,6-3.26A31.69,31.69,0,0,1,74.11,20a19.52,19.52,0,0,1,5,.49Q80.87,21,80.87,22a6,6,0,0,1-.46,2.61,2.82,2.82,0,0,1-1,1.22,15.48,15.48,0,0,1-1.85.82,19.21,19.21,0,0,0-2.46,1,18.84,18.84,0,0,0-1.79,1,2.84,2.84,0,0,1-.92.49c-.15,0-.22-.06-.22-.18s.27-.64.8-1.16a7.8,7.8,0,0,1,2-1.36q1.23-.65,1.24-.83T74.8,25.4a37.35,37.35,0,0,0-7.68.74,18.37,18.37,0,0,0-5.56,2q-2,1.21-2,2.47a1.14,1.14,0,0,0,.84,1.11q.84.33,3.72,1.09a36.19,36.19,0,0,1,5.14,1.75,16.36,16.36,0,0,1,4.83,2.9,4.57,4.57,0,0,1,1.57,3.37A5.93,5.93,0,0,1,75,43.36a7.66,7.66,0,0,1-1.81,2.37,10.4,10.4,0,0,1-2.74,1.77,22.51,22.51,0,0,1-3.33,1.06,36.56,36.56,0,0,1-4.36.77,37.82,37.82,0,0,1-4.48.28A22,22,0,0,1,52,48.87q-2.39-.74-2.39-2.25a5,5,0,0,1,.81-2.1,4.33,4.33,0,0,1,1.91-1.92,6.12,6.12,0,0,1,1.86-.44q.9-.06.9.21a.19.19,0,0,1-.07.13.6.6,0,0,1-.16.11l-.18.09-.73.28a2.6,2.6,0,0,0-.45.2.31.31,0,0,0-.17.28q0,.47,4.65.47a61.05,61.05,0,0,0,6.63-.29,18.37,18.37,0,0,0,4.56-1.06A12.75,12.75,0,0,0,72.74,40.49Z"
        fill="#231815" />
  <path d="M96,39.91v1.42q-2,2-3.38,3.27a18.18,18.18,0,0,1-2.49,1.92,3.67,3.67,0,0,1-1.81.65q-1.75,0-1.75-2.07a8.88,8.88,0,0,1,1.09-3.85,43.62,43.62,0,0,1,3.13-5.15,13.17,13.17,0,0,0-1.91,1.29,13,13,0,0,0-1.59,1.53l-1.17,1.36q-1.46,1.64-2.81,3.36T81.5,45.86a1.29,1.29,0,0,1-.9.52q-1.75,0-1.75-4.31a13,13,0,0,1,.43-3.12,16,16,0,0,1,2.29-4.51q3.93-5.88,6.73-9.62a63.45,63.45,0,0,1,4.64-5.66q1.84-1.92,2.47-1.88a3.46,3.46,0,0,1,1.27.31q.48.25.48.56A4.44,4.44,0,0,1,96.38,20q-.77,1.29-2.66,4-2,2.9-2.9,4.08t-2.55,3.35q-1.7,2.17-3.1,3.86T82,39v2.7q3-3.35,5.21-5.48A34.34,34.34,0,0,1,90.91,33a4.77,4.77,0,0,1,2.25-1.09,1.61,1.61,0,0,1,1.26.8A2.44,2.44,0,0,1,95,34a1.09,1.09,0,0,1-.22.56q-1.62,1.93-2.57,3.2A16.5,16.5,0,0,0,90.73,40a3.89,3.89,0,0,0-.52,1.72q0,1.06,1,1.06T96,39.91Z"
        fill="#231815" />
  <path d="M98.63,35.89a27.29,27.29,0,0,1,6.63-4.6,13,13,0,0,1,5-1.5,1.24,1.24,0,0,1,.88.39,3,3,0,0,1,.64.91,2.12,2.12,0,0,1,.24.76.65.65,0,0,1-.31.6,6.25,6.25,0,0,1-1.1.46l.4.92q.25.56.38.91a1.74,1.74,0,0,1,.13.62,4.73,4.73,0,0,1-1.09,2q-1.09,1.47-1.53,2.17a3.15,3.15,0,0,0-.44,1.71q0,1.66,1.53,1.66T114.87,40v1.37q-5.68,6.31-8.13,6.31a1.37,1.37,0,0,1-1.25-.57,3.15,3.15,0,0,1-.37-1.7,16,16,0,0,1,1.28-5.14q-3.28,3.64-4.87,5.18a4.39,4.39,0,0,1-2.63,1.54q-.49,0-1.24-.85a8.22,8.22,0,0,1-1.31-2.21,7.19,7.19,0,0,1-.57-2.82,6.53,6.53,0,0,1,.2-1.76,4.27,4.27,0,0,1,.79-1.45A20.05,20.05,0,0,1,98.63,35.89Zm10.76-2.47A48.62,48.62,0,0,0,101.07,38q-2.48,1.86-2.48,3.84A2.48,2.48,0,0,0,98.84,43a.75.75,0,0,0,.67.46,2.44,2.44,0,0,0,.88-.31,17.64,17.64,0,0,0,4.31-3.63Q106.65,37.26,109.39,33.42Z"
        fill="#231815" />
  <path d="M114.45,41.64V40.18a22,22,0,0,0,1.84-2.45,2.47,2.47,0,0,1-1-.61,1.56,1.56,0,0,1-.33-1.08,4.55,4.55,0,0,1,.67-2,11.73,11.73,0,0,1,1.66-2.31,5.21,5.21,0,0,1,1.8-1.39,1.36,1.36,0,0,1,.61-.16q.45,0,.45.43a4.26,4.26,0,0,1-.7,1.55,53.42,53.42,0,0,1,5.84-.72,1.63,1.63,0,0,1,.65.09,1.57,1.57,0,0,1,.63.94,4.65,4.65,0,0,1,.25,1.48,1.74,1.74,0,0,1-.42,1,20.42,20.42,0,0,1-1.43,1.61,13.37,13.37,0,0,0-2,2.79,5.5,5.5,0,0,0-.81,2.27q0,1.06,1.3,1.06t4.76-2.79v1.5q-1.86,2-3.08,3.08a16.47,16.47,0,0,1-2.25,1.79,3.52,3.52,0,0,1-1.84.66,1.88,1.88,0,0,1-1.57-.86,4.22,4.22,0,0,1-.63-2.5,6,6,0,0,1,.49-2.2,15.25,15.25,0,0,1,1.45-2.68,32.82,32.82,0,0,1,2.14-2.89L121.5,36l-1.66.3-1.35.25A16.2,16.2,0,0,1,114.45,41.64Z"
        fill="#231815" />
  <path d="M131.7,40.72v.56a3,3,0,0,0,.65,2.07,2.16,2.16,0,0,0,1.71.74,5.67,5.67,0,0,0,2.28-.52,12.44,12.44,0,0,0,2.35-1.37q1.17-.85,2.85-2.29v1.37A27.87,27.87,0,0,1,136.77,46a7.59,7.59,0,0,1-4.51,1.63A3.76,3.76,0,0,1,129.09,46a6.91,6.91,0,0,1-1.17-4.25,8.45,8.45,0,0,1,1.1-4.28,16.25,16.25,0,0,1,3.59-4.05,13.88,13.88,0,0,1,3.39-2.2,7.6,7.6,0,0,1,3-.74,2.65,2.65,0,0,1,1.67.48,1.73,1.73,0,0,1,.62,1.45,4.67,4.67,0,0,1-1.06,2.82A12.19,12.19,0,0,1,137,38.06,33,33,0,0,1,131.7,40.72Zm.22-1.46a12.78,12.78,0,0,0,3.46-2,10,10,0,0,0,2.12-2.23,3.52,3.52,0,0,0,.68-1.56q0-.52-.47-.52a3.23,3.23,0,0,0-1.31.52,10.86,10.86,0,0,0-1.84,1.35,9.91,9.91,0,0,0-1.67,2A6.31,6.31,0,0,0,131.92,39.26Z"
        fill="#231815" />
</svg>