<svg id="圖層_1" data-name="圖層 1" xmlns="http://www.w3.org/2000/svg" viewBox="0 0 190.67 72">
  <title>Thinking</title>
  <path d="M47.56,42.51l.74.56q-.29.63-.56,1.1l-.65,1.15-.58,1q-1.68,2.94-3.17,2.94a1.41,1.41,0,0,1-1.08-.49,1.93,1.93,0,0,1-.45-1.35,9.49,9.49,0,0,1,.86-3.32,43,43,0,0,1,2.67-5.2q1.81-3.09,4.55-7t6.18-8.24a32.68,32.68,0,0,0-4.69-.29,39.2,39.2,0,0,0-7,.7,53.48,53.48,0,0,0-6.67,1.61q-2.84.91-2.84,1.34a.21.21,0,0,0,.11.21,1.25,1.25,0,0,0,.37.09l.66.08q2.63.36,2.63.81,0,.22-1.15.21H34.78a11.93,11.93,0,0,1-1.85-.1,1.12,1.12,0,0,1-.76-.38,1.56,1.56,0,0,1-.19-.86,12.71,12.71,0,0,1,.22-1.66,11,11,0,0,1,1.31-3.82,6.46,6.46,0,0,1,2.72-2.35,18.49,18.49,0,0,1,5-1.45,54.91,54.91,0,0,1,8.92-.92,30.87,30.87,0,0,1,4.11.21,6.52,6.52,0,0,1,2.21.62,2.15,2.15,0,0,1,.9.8,12.21,12.21,0,0,1,.51,1.36l.7,2.07.11.33a2.66,2.66,0,0,1,.08.26,1,1,0,0,1,0,.25,3.14,3.14,0,0,1-.39,1.57A21.89,21.89,0,0,1,57,26.41q-1,1.39-1.54,2.18A157.36,157.36,0,0,0,47.56,42.51Z"
        fill="#231815" />
  <path d="M72.13,39.91v1.42q-2,2-3.38,3.27a18.18,18.18,0,0,1-2.49,1.92,3.67,3.67,0,0,1-1.81.65q-1.75,0-1.75-2.07a8.88,8.88,0,0,1,1.09-3.85,43.63,43.63,0,0,1,3.13-5.15A13.17,13.17,0,0,0,65,37.38a13,13,0,0,0-1.59,1.53l-1.17,1.36q-1.46,1.64-2.81,3.36t-1.82,2.23a1.29,1.29,0,0,1-.9.52Q55,46.38,55,42.07a13,13,0,0,1,.43-3.12,16,16,0,0,1,2.29-4.51q3.93-5.88,6.73-9.62a63.36,63.36,0,0,1,4.64-5.66q1.84-1.92,2.47-1.88a3.46,3.46,0,0,1,1.27.31q.48.25.48.56A4.44,4.44,0,0,1,72.5,20q-.77,1.29-2.66,4-2,2.9-2.9,4.08t-2.55,3.35q-1.7,2.17-3.1,3.86T58.09,39v2.7q3-3.35,5.21-5.48A34.3,34.3,0,0,1,67,33a4.77,4.77,0,0,1,2.25-1.09,1.61,1.61,0,0,1,1.26.8A2.45,2.45,0,0,1,71.12,34a1.09,1.09,0,0,1-.22.56q-1.62,1.93-2.57,3.2A16.44,16.44,0,0,0,66.85,40a3.89,3.89,0,0,0-.52,1.72q0,1.06,1,1.06T72.13,39.91Z"
        fill="#231815" />
  <path d="M82.86,39.91v1.64a22.93,22.93,0,0,1-4.07,4.23,5.74,5.74,0,0,1-3.21,1.43,2.91,2.91,0,0,1-2.74-1.93,9.89,9.89,0,0,1-.9-4.22,7.57,7.57,0,0,1,.18-1.67,6.28,6.28,0,0,1,.43-1.31q.25-.52.92-1.62,3.19-5,5.84-5,1.37,0,1.37,1.06a5.32,5.32,0,0,1-.89,2.25A9.88,9.88,0,0,1,78.21,37a35.46,35.46,0,0,0-2.55,2.63,2.62,2.62,0,0,0-.6,1.68,1.73,1.73,0,0,0,.61,1.35,2.28,2.28,0,0,0,1.57.54,4.55,4.55,0,0,0,2.32-.77A28.65,28.65,0,0,0,82.86,39.91Zm-1.53-10a1.63,1.63,0,0,1-1.07-.43,1.35,1.35,0,0,1-.51-1.08,3.73,3.73,0,0,1,.94-2.2,2.58,2.58,0,0,1,2-1.21,1.59,1.59,0,0,1,1.12.42,1.56,1.56,0,0,1,.45,1.2,3.58,3.58,0,0,1-.92,2.13A2.56,2.56,0,0,1,81.34,29.87Z"
        fill="#231815" />
  <path d="M97.8,35.84q-4,4.4-4,6.13,0,1,.79,1a3.39,3.39,0,0,0,1.7-.69q1-.68,3.27-2.44v1.55q-3.19,3.15-4.9,4.54a5,5,0,0,1-2.79,1.39q-1.84,0-1.84-2.43a4.58,4.58,0,0,1,.22-1.42A9.31,9.31,0,0,1,90.92,42q.39-.75,1.2-2.16T94,36.67a14.13,14.13,0,0,0-3.21,2.58,25,25,0,0,0-2.13,2.3q-.88,1.09-1.88,2.43a19.06,19.06,0,0,1-1.46,1.8,1.34,1.34,0,0,1-.93.46q-.72,0-1.33-1.5a9.33,9.33,0,0,1-.61-3.5,5.32,5.32,0,0,1,.28-1.93,12.92,12.92,0,0,1,1.11-2,22,22,0,0,1,2.67-3.49,3.18,3.18,0,0,1,2.16-1.11,2.35,2.35,0,0,1,1.16.25.82.82,0,0,1,.44.76,1,1,0,0,1-.13.47,2.76,2.76,0,0,1-.3.45q-.17.2-.71.79-3.55,3.93-3.55,5.1,0,.65.43.65.27,0,1-.86t2-2.27a36.5,36.5,0,0,1,2.9-2.93,31.23,31.23,0,0,1,3.81-2.94,3.75,3.75,0,0,1,2-.83q.36,0,.71,1a6,6,0,0,1,.35,2Q98.77,34.83,97.8,35.84Z"
        fill="#231815" />
  <path d="M116.4,39.91v1.5a47.16,47.16,0,0,1-4.22,4.46,4.83,4.83,0,0,1-2.85,1.52,3.28,3.28,0,0,1-2-.65,6.28,6.28,0,0,1-1.59-1.8,33.75,33.75,0,0,1-1.67-3.19q-1.15,1.42-2.07,2.64T100.72,46a1,1,0,0,1-.65.4q-.61,0-.88-.77a7.24,7.24,0,0,1-.27-2.26,15.58,15.58,0,0,1,.48-3.9,17.61,17.61,0,0,1,1.39-3.65A34,34,0,0,1,103.14,32q1.43-2.06,3.2-4.3,2.45-3.1,4.22-5.06a24,24,0,0,1,3.09-3,4,4,0,0,1,2.19-1q1.08,0,1.08,1t-4,6q-4,5.15-11.59,14.07v1.93a108.45,108.45,0,0,1,8.21-8.11q3.11-2.65,4.82-2.65a1.19,1.19,0,0,1,1.08.82,4.45,4.45,0,0,1,.38,1.9A5.67,5.67,0,0,1,114,37.67a33.6,33.6,0,0,1-5.79,4.3,7.85,7.85,0,0,0,1.19,1.47,1.88,1.88,0,0,0,1.3.46,3,3,0,0,0,1.5-.47,11.44,11.44,0,0,0,1.65-1.19Q114.65,41.53,116.4,39.91Zm-8.87,1.15a17.32,17.32,0,0,0,2.12-1.74,15.91,15.91,0,0,0,2.17-2.45,4,4,0,0,0,.9-2.12q0-.36-.31-.36-.85,0-2.93,1.64a23.94,23.94,0,0,0-4.05,4.2A4.11,4.11,0,0,1,107.53,41.05Z"
        fill="#231815" />
  <path d="M127,39.91v1.64a22.93,22.93,0,0,1-4.07,4.23,5.74,5.74,0,0,1-3.21,1.43A2.91,2.91,0,0,1,117,45.28a9.89,9.89,0,0,1-.9-4.22,7.57,7.57,0,0,1,.18-1.67,6.28,6.28,0,0,1,.43-1.31q.25-.52.92-1.62,3.19-5,5.84-5,1.37,0,1.37,1.06a5.32,5.32,0,0,1-.89,2.25A9.88,9.88,0,0,1,122.35,37a35.46,35.46,0,0,0-2.55,2.63,2.62,2.62,0,0,0-.6,1.68,1.73,1.73,0,0,0,.61,1.35,2.28,2.28,0,0,0,1.57.54,4.55,4.55,0,0,0,2.32-.77A28.65,28.65,0,0,0,127,39.91Zm-1.53-10a1.63,1.63,0,0,1-1.07-.43,1.35,1.35,0,0,1-.51-1.08,3.73,3.73,0,0,1,.94-2.2,2.58,2.58,0,0,1,2-1.21,1.59,1.59,0,0,1,1.12.42,1.56,1.56,0,0,1,.45,1.2,3.58,3.58,0,0,1-.92,2.13A2.56,2.56,0,0,1,125.47,29.87Z"
        fill="#231815" />
  <path d="M141.94,35.84q-4,4.4-4,6.13,0,1,.79,1a3.39,3.39,0,0,0,1.7-.69q1-.68,3.27-2.44v1.55q-3.19,3.15-4.9,4.54a5,5,0,0,1-2.79,1.39q-1.84,0-1.84-2.43a4.58,4.58,0,0,1,.22-1.42,9.31,9.31,0,0,1,.62-1.45q.39-.75,1.2-2.16t1.86-3.18a14.13,14.13,0,0,0-3.21,2.58,25,25,0,0,0-2.13,2.3q-.88,1.09-1.88,2.43a19.06,19.06,0,0,1-1.46,1.8,1.34,1.34,0,0,1-.93.46q-.72,0-1.33-1.5a9.33,9.33,0,0,1-.61-3.5,5.32,5.32,0,0,1,.28-1.93,12.92,12.92,0,0,1,1.11-2,22,22,0,0,1,2.67-3.49,3.18,3.18,0,0,1,2.16-1.11A2.35,2.35,0,0,1,134,33a.82.82,0,0,1,.44.76,1,1,0,0,1-.13.47,2.76,2.76,0,0,1-.3.45q-.17.2-.71.79-3.55,3.93-3.55,5.1,0,.65.43.65.27,0,1-.86t2-2.27a36.5,36.5,0,0,1,2.9-2.93,31.23,31.23,0,0,1,3.81-2.94,3.75,3.75,0,0,1,2-.83q.36,0,.71,1a6,6,0,0,1,.35,2Q142.9,34.83,141.94,35.84Z"
        fill="#231815" />
  <path d="M161.46,41.41,154,47.55a43.25,43.25,0,0,1-5.73,8.12q-2.58,2.68-3.84,2.68-.67,0-.67-.83a8.22,8.22,0,0,1,1.64-4.13,16.67,16.67,0,0,1,1.49-1.93,22.14,22.14,0,0,1,1.59-1.63q.75-.69,2-1.71l1.68-1.4q2.25-4.58,3.23-7-2.11,2.25-3.68,3.68a17.85,17.85,0,0,1-2.89,2.21,4.77,4.77,0,0,1-2.37.77q-1.15,0-2.11-1.83a8,8,0,0,1-1-3.76,4.86,4.86,0,0,1,.42-1.89,9.29,9.29,0,0,1,1.3-2.11,17,17,0,0,1,2.26-2.3,24.36,24.36,0,0,1,3.21-2.3Q154,30,156,30q1.44,0,1.44,1.06,0,1.46-3.12,2.85a19.9,19.9,0,0,0-3.78,2.2,14.31,14.31,0,0,0-3,2.91,4.8,4.8,0,0,0-1.16,2.77,1.48,1.48,0,0,0,.29,1,.94.94,0,0,0,.76.36,3.23,3.23,0,0,0,1.8-.72,34.8,34.8,0,0,0,3-2.54,26.8,26.8,0,0,0,2.39-2.68A37.07,37.07,0,0,1,157,34.35a2.7,2.7,0,0,1,1.76-1,1,1,0,0,1,.73.28,1.11,1.11,0,0,1,.28.82,8.66,8.66,0,0,1-.82,3q-.82,2-3,6.44l5.44-4Z"
        fill="#231815" />
</svg>