<svg id="icon" xmlns="http://www.w3.org/2000/svg" viewBox="0 0 75 75"><title>action-good</title><path d="M30.15,59.65c0-.61-.05-1.23-.05-1.86C30.1,58.41,30.12,59,30.15,59.65Z" fill="#b3ab88"/><path d="M30.1,57.56q0-.84,0-1.7Q30.11,56.73,30.1,57.56Z" fill="#b3ab88"/><path d="M56.09,61.23c4.94,0,8.06-2.29,9.28-6.74,1.73-6.34,3.19-12.69,4.32-18.85a8.78,8.78,0,0,0-6.2-9.87,21.69,21.69,0,0,0-7.6-.51,4.06,4.06,0,0,1-3.09-.87,4.36,4.36,0,0,1-1.09-3.29c0-1.65.05-2.93.05-4,0-3.17-.6-4.07-3.42-5.88-.78-.5-3.82-2.83-4.17-3.05a3,3,0,0,0-2.41-.63,3,3,0,0,0-1.45,2c-1.6,5-3.25,10.28-5.18,16.73a2.46,2.46,0,0,0,.12,1.9,2,2,0,0,0,1.26,1c1.21.33,2.15-.26,2.59-1.62.73-2.23,2.43-8,3.27-10.6.64-2,.95-3.25,3.08-2.32a3.07,3.07,0,0,1,2.16,3.23c.06,2,0,6.84,0,8.19,0,2.7.56,3.26,3.25,3.32,1.27,0,2.54,0,3.82,0,1.76,0,3.57,0,5.38.07a5.69,5.69,0,0,1,4.53,2,5.86,5.86,0,0,1,.71,5S62.85,47.1,61.85,51.67c-.92,4.18-2.55,5.52-6.73,5.52H29.56c0,.06,0,.12,0,.17q0,.86,0,1.7c0,.07,0,.15,0,.22,0,.63,0,1.25.05,1.86,0,0,0,.08,0,.12S49.53,61.27,56.09,61.23Z" fill="#b3ab88"/><path d="M25.57,27c0-2.51-.67-3.13-3.18-3.16-3.64,0-7.94-.07-12.26,0-2.14,0-2.93.82-2.94,2.94,0,12.62,0,25.35,0,37.84,0,2.08.67,2.76,2.75,2.78,1.36,0,2.71,0,4.07,0l2.64,0c1.23,0,2.47,0,3.7.07,2.58.11,4.07-.13,4.68-.77s.54-1.47.54-4ZM21.47,59.65a3.87,3.87,0,0,1-.94,2.91,3.56,3.56,0,0,1-2.57.88H15.69c-1.87,0-2.9,0-3.69-.86s-.74-1.77-.71-3.25c0-.57.05-24.16,0-27.42a4,4,0,0,1,.93-3.06A3.82,3.82,0,0,1,15.12,28c.73,0,1.34,0,1.87,0,1.91,0,3,0,3.77.87s.75,1.83.7,3.38C21.44,32.81,21.43,55.47,21.47,59.65Z" fill="#b3ab88"/><path d="M30.16,59.76h0s0-.08,0-.12S30.16,59.73,30.16,59.76Z" fill="#b3ab88"/><path d="M30.16,55.69c0,.06,0,.11,0,.17s0-.12,0-.17Z" fill="#b3ab88"/></svg>