<svg id="icon" xmlns="http://www.w3.org/2000/svg" viewBox="0 0 75 75"><title>action-save</title><path d="M13,57.89c.57-3.37,1.07-7.32,2-11.17a3.86,3.86,0,0,0-1.44-4.25c-2.64-2.41-5.12-5-7.73-7.44A6,6,0,0,1,4,28.19c.9-2.52,3-3.64,5.56-4A84.71,84.71,0,0,1,18.75,23c3-.09,4.47-1.48,5.55-4.08,1.22-2.94,2.8-5.72,4.22-8.57A5.76,5.76,0,0,1,34,6.78a5.89,5.89,0,0,1,5.71,3.67C41.34,13.73,43,17,44.57,20.32a3.87,3.87,0,0,0,3.53,2.45c3.55.36,7.08.91,10.61,1.43,2.56.37,4.57,1.56,5.48,4.12a5.9,5.9,0,0,1-1.73,6.59c-1.86,1.83-3.73,3.65-5.63,5.44-1.23,1.16-2.6,1.39-3.8,0s-.74-2.51.36-3.59c1.72-1.7,3.47-3.37,5.19-5.07,1.23-1.21,1.35-2.12-.7-2.42-4.2-.61-8.38-1.34-12.58-1.85a4.77,4.77,0,0,1-4.22-3c-1.7-3.68-3.56-7.29-5.4-10.9-.37-.73-.58-1.86-1.6-1.81s-1.23,1.12-1.61,1.88C30.72,17.1,28.89,20.51,27.32,24a5.24,5.24,0,0,1-4.81,3.45c-3.74.34-7.47.91-11.17,1.54-.87.15-2.17,0-2.54,1s.82,1.62,1.46,2.26c2.68,2.65,5.34,5.33,8.13,7.85a5.09,5.09,0,0,1,1.83,5.6c-.87,3.55-1.33,7.22-1.89,10.84-.15,1-1,2.15.21,2.94,1,.67,1.81-.31,2.62-.72q4.65-2.35,9.23-4.82c1.61-.87,3.07-.85,3.92.89.77,1.58,0,2.77-1.5,3.54-3.68,1.91-7.31,3.93-11.05,5.72C17.37,66.27,12.87,63.26,13,57.89Z" fill="#b3ab88"/><path d="M55.34,45.72c3.38,0,6.75,0,10.13,0,1.7,0,2.94.56,2.93,2.37s-1.19,2.41-2.92,2.4q-10.42-.06-20.84,0c-1.81,0-2.83-.81-2.78-2.53S43,45.68,44.63,45.7C48.2,45.75,51.77,45.72,55.34,45.72Z" fill="#b3ab88"/><path d="M55.19,60.38c-3.47,0-6.95-.06-10.42,0-1.75,0-2.9-.58-2.9-2.38s1.17-2.38,2.91-2.37q10.27.08,20.55,0c1.68,0,3,.43,3.06,2.24.08,2-1.24,2.54-3.07,2.5C61.94,60.33,58.56,60.38,55.19,60.38Z" fill="#b3ab88"/><path d="M51.38,70.36c-2.22,0-4.45-.05-6.67,0-1.75.06-2.89-.63-2.84-2.43,0-1.58,1-2.34,2.69-2.32q7,.09,13.91,0c1.66,0,2.69.76,2.73,2.31.05,1.78-1.13,2.48-2.87,2.43C56,70.31,53.7,70.36,51.38,70.36Z" fill="#b3ab88"/></svg>