<svg id="icon" xmlns="http://www.w3.org/2000/svg" viewBox="0 0 75 75"><title>action-record</title><path d="M37.42,66.4H59c1.17,0,2.34,0,3.5,0s2.34-.59,2.47-2-1-2-2.18-2.23a18.7,18.7,0,0,0-2.91-.08c-15,0-30,0-45,0-1.9,0-5.1-1-4.93,2.26.16,3.09,3.31,1.92,5.22,2C22.62,66.47,30,66.4,37.42,66.4Z" fill="#b3ab88"/><path d="M26.39,59c3.9,0,7.79,0,11.69,0,1.46,0,2.89-.57,2.83-2.27s-1.66-1.9-3-1.9q-12,0-24,0c-1.42,0-2.94.23-2.81,2.1.12,1.71,1.61,2.06,3,2.08,4.09,0,8.18,0,12.27,0Z" fill="#b3ab88"/><path d="M59.31,59.86c-5.81-1.12-11.76-1.53-16.38-6.56-8-8.75-16.72-16.91-25.12-25.33-7.49-7.49-7.48-8.36.13-15.82,5-4.93,7-4.95,12.12.13C38.77,20.94,47.14,30,56.23,38.21c5.18,4.7,6.16,10.54,7.28,16.57C63.62,58,62,60.38,59.31,59.86ZM59,53.36c-.6-3.61-.81-7.28-3.78-10.15Q44.66,33,34.48,22.51c-1.88-1.93-3-2.2-5.16-.17-5.87,5.59-6,5.47-.37,11.08q8.69,8.69,17.39,17.39a15.14,15.14,0,0,0,10.51,4.32C58.22,55.38,59.22,54.95,59,53.36ZM25.9,20.1c3.1-3.1,3-3.65-.11-6.26-1.52-1.29-2.63-1.29-4,.11s-2.74,2.75-4.13,4.11c-.89.86-1.64,1.87-.83,3a9.84,9.84,0,0,0,3.85,3.54C23,23.75,24.29,21.72,25.9,20.1Z" fill="#b3ab88"/></svg>