<svg id="icon" xmlns="http://www.w3.org/2000/svg" viewBox="0 0 100 100"><title>fontOrign</title><path d="M75.09,87C67,87,61.31,82,60.34,75.53c-.42-2.79,0-5.26,3.14-5.78,2.91-.49,4,1.66,4.59,4.23,1.12,4.67,5.22,6.69,8.62,4.31,2.06-1.45,3.25-3.47,2.52-6.09a5.56,5.56,0,0,0-5-4.35,10,10,0,0,0-2.07,0c-2.55.23-4.57-.6-4.78-3.35-.22-3,1.92-4,4.5-4.38a13.55,13.55,0,0,1,13.45,6.45,13,13,0,0,1-.44,14.51A12.51,12.51,0,0,1,75.09,87Z" fill="#757159"/><path d="M73.24,47.17l-.15-.38-.58-1.51-.17-.44L51.16,25.15c-3.75-3.48-7.63-7.08-11.41-10.64a5.38,5.38,0,0,0-9.31,3.43l-.9,8.28Q28.2,38.56,26.88,50.91L22.87,88a5.25,5.25,0,0,0,4.66,5.76l.53,0A5.22,5.22,0,0,0,33.25,89c0-.18,1.63-18.05,2.39-23.25a7.4,7.4,0,0,1,2.19-3.37c.65-.65,4.54-3.05,6.87-4.49l1.89-1.17c2.52-1.57,4.15-2.56,6.45-2.52,3.34,0,6.7-.13,10-.26l3.49-.14c4.54-.17,6.63-2.08,6.77-6.22Zm-18.93-3.9c-4.46-.31-7.54.94-15,6.09a15.83,15.83,0,0,1-2,1.21l.06-.3c.07-.32.13-.63.18-1,.41-3,1.15-10,1.74-15.57.22-2.07.41-3.89.55-5.12,1.53,1.41,4.43,4,7.48,6.63s6.09,5.34,7.7,6.83l.5.45a12.08,12.08,0,0,1,1,.92,10.26,10.26,0,0,1-1.44-.1Z" fill="#fff9db"/></svg>