<svg id="icon" xmlns="http://www.w3.org/2000/svg" viewBox="0 0 100 100"><title>icon-github</title><circle cx="50" cy="50" r="30" fill="#fff9db"/><path d="M45.38,69.57a2.06,2.06,0,0,0-2.44-2c-2.7.5-6.12.57-7-2-.79-2-.91-2.73-2.72-4.54-.9-.9-2.48-2-3.34-2h0a2.06,2.06,0,0,0-2.06,2.05c0,1.68,1.73,2.66,2.35,3.12A6.65,6.65,0,0,1,32.05,67c.75,2.11,2.94,5.32,9.22,4.9v.76a2.06,2.06,0,1,0,4.13,0V72c0-.39,0-1,0-2.44Zm22-31.22c.07-.26.13-.54.19-.87a13,13,0,0,0-.84-6.8,2.07,2.07,0,0,0-1.27-1.2c-.73-.25-3.45-.74-8.64,2.58a28.63,28.63,0,0,0-13.11,0c-5.17-3.27-7.87-2.82-8.59-2.59a2.06,2.06,0,0,0-1.3,1.21A13,13,0,0,0,33,37.61c.05.26.11.51.16.73a12.94,12.94,0,0,0-2.59,7.9,17.38,17.38,0,0,0,.09,1.9c.69,9.5,6.88,12.35,11.19,13.33q-.14.41-.24.83a2.06,2.06,0,1,0,4,1,3.46,3.46,0,0,1,1-1.81,2.06,2.06,0,0,0-1.13-3.6c-7.13-.82-10.22-3.72-10.69-10.11a13.64,13.64,0,0,1-.07-1.52,8.79,8.79,0,0,1,1.9-5.6,6.24,6.24,0,0,1,.4-.48,2.06,2.06,0,0,0,.39-2.12,7,7,0,0,1-.32-1.15,8.45,8.45,0,0,1,.16-3.34,15.57,15.57,0,0,1,5,2.44,2.08,2.08,0,0,0,1.71.27,24.31,24.31,0,0,1,12.74,0A2.07,2.07,0,0,0,58.36,36a15.63,15.63,0,0,1,5-2.46,8.34,8.34,0,0,1,.18,3.26,6.61,6.61,0,0,1-.35,1.25,2.06,2.06,0,0,0,.39,2.12c.16.18.32.37.46.55a8.51,8.51,0,0,1,1.86,5.52,14.53,14.53,0,0,1-.08,1.6c-.45,6.31-3.56,9.21-10.72,10a2.06,2.06,0,0,0-1.13,3.6,3.36,3.36,0,0,1,1,1.87A6.32,6.32,0,0,1,55.1,65v4.81c0,1.34,0,2.34,0,2.8a2.06,2.06,0,1,0,4.13,0h0c0-.45,0-1.43,0-2.77V65a10.07,10.07,0,0,0-.32-2.71,8.78,8.78,0,0,0-.24-.86A13.44,13.44,0,0,0,69.9,48.22a18,18,0,0,0,.09-2,12.65,12.65,0,0,0-2.61-7.9Z" fill="#7876b3"/></svg>