<svg id="icon" xmlns="http://www.w3.org/2000/svg" viewBox="0 0 35 35"><title>menu-News</title><path d="M28.61,10.35A7.22,7.22,0,0,1,26,8.27,14,14,0,0,0,15.06,3,15.08,15.08,0,0,0,7.9,4.87,14.2,14.2,0,0,0,1.29,21.51a11.88,11.88,0,0,1,.48,5.41c-.28,2.2-.11,3.47.57,4.25A3,3,0,0,0,4.69,32a12.86,12.86,0,0,0,2.38-.28c.39-.08.78-.18,1.15-.27a8.88,8.88,0,0,1,2.21-.38,3.77,3.77,0,0,1,.85.09,17.23,17.23,0,0,0,3.84.46,13.71,13.71,0,0,0,6.22-1.47l.21-.11a1.54,1.54,0,0,1,.51-.21,11.48,11.48,0,0,0,1.18.06c.73,0,1.46-.06,2.16-.11s1.41-.11,2.1-.11a8.59,8.59,0,0,1,2.31.28,3.5,3.5,0,0,0,.92.13A2.9,2.9,0,0,0,33,29a3.12,3.12,0,0,0,.66-2.57,6.66,6.66,0,0,1,.37-3.9,5.66,5.66,0,0,0,.34-2.18c0-.19,0-.37,0-.55A10,10,0,0,0,28.61,10.35ZM3.9,21a11.37,11.37,0,0,1,.75-9.28A11.53,11.53,0,0,1,12.15,6a12.89,12.89,0,0,1,2.91-.34,11.72,11.72,0,0,1,11.33,9.25,8,8,0,0,1,.17,1.64c0,.28,0,.56,0,.83A11.68,11.68,0,0,1,15.07,29a11.85,11.85,0,0,1-2.32-.23,9.92,9.92,0,0,0-2-.19A20.56,20.56,0,0,0,7,29l-.33.06a12.06,12.06,0,0,1-1.87.25c-.27,0-.45,0-.52-.12-.24-.27-.06-1.48.05-2.2A11.82,11.82,0,0,0,3.9,21ZM31,26.59a1.06,1.06,0,0,1-.07.79s-.08.09-.27.09a1.22,1.22,0,0,1-.33-.05A11.31,11.31,0,0,0,27.22,27a12.71,12.71,0,0,0-1.86.14,14.8,14.8,0,0,0,3.48-13.35,6.79,6.79,0,0,1,3,6.25c0,.14,0,.29,0,.44a3.44,3.44,0,0,1-.25,1.27A7.19,7.19,0,0,0,31,26.59Z" fill="#b3ab88"/><path d="M9.52,15.78c-.81,0-1.6-.32-1.57-1.26s.92-1.05,1.69-1.05H19.92c.79,0,1.63.12,1.56,1.16s-.89,1.14-1.68,1.15C17.54,15.82,11.68,15.82,9.52,15.78Z" fill="#fff9db"/><path d="M9.52,22.31c-.81,0-1.6-.32-1.57-1.26S8.87,20,9.64,20H19.92c.79,0,1.63.12,1.56,1.16s-.89,1.14-1.68,1.15C17.54,22.34,11.68,22.34,9.52,22.31Z" fill="#fff9db"/></svg>