<svg id="icon" xmlns="http://www.w3.org/2000/svg" viewBox="0 0 35 35"><title>menu-Manage</title><path d="M17.51,31c-.37-2.53-.76-5.07-1.11-7.6-.47-3.4.55-4.56,4-4.48,2.46.06,4.92.18,7.39.27a2,2,0,0,1-1.17,2.37c-1.92-.23-3.86,0-5.77-.49s-2.34.43-2.07,2.12c.33,2.12.59,4.24.88,6.37C19.24,30.51,18.79,31.36,17.51,31Z" fill="#fff9db"/><path d="M5,17.28C5,13.49,4.91,9.7,5,5.91c.06-3.18,1-4.1,4.08-4.13q8.44-.07,16.89,0c2.92,0,4,1,4.06,3.85.11,4.65,0,9.31,0,14a4.18,4.18,0,0,1-1.14,2.92c-2.64,3-5.27,6-7.81,9.13a4.06,4.06,0,0,1-3.65,1.59c-2.7-.11-5.41,0-8.12,0C6.09,33.17,5,32.16,5,29,4.92,25.07,5,21.18,5,17.28Zm21.62,4.28a2,2,0,0,0,1.17-2.37c0-2.26,0-4.53.09-6.78.05-1.24-.36-1.75-1.64-1.75q-8.57.06-17.14,0c-1.35,0-1.9.48-1.88,1.9.06,5.39.08,10.78,0,16.17,0,1.92.88,2.43,2.57,2.38C12.34,31,14.92,31,17.51,31c1.28.35,1.73-.5,2.12-1.45A67.77,67.77,0,0,0,26.58,21.56Zm-9.41-13h0c2.92,0,5.83,0,8.75,0,1.32,0,2.06-.3,1.92-1.81-.12-1.27.21-2.82-1.74-2.84-5.73,0-11.45,0-17.18,0-2,0-1.62,1.55-1.73,2.8-.13,1.46.52,1.88,1.88,1.84C11.77,8.51,14.47,8.56,17.17,8.56Z" fill="#b3ab88"/></svg>