<svg id="icon" xmlns="http://www.w3.org/2000/svg" viewBox="0 0 65 65"><title>question</title><path d="M19.8,21.45A14.86,14.86,0,0,0,16,27.79a11.38,11.38,0,0,0,1.7,9.58A6.41,6.41,0,0,1,19,41.42c-.09,1.5,0,3,0,4.5,0,.68.13,1,1,.66s1.81-.59,2.66-1a2.49,2.49,0,0,1,2.82,1.1,2.17,2.17,0,0,1-.45,3c-2.08,1.15-4.19,2.31-6.75,2A5,5,0,0,1,14,46.86q0-2.59,0-5.19a3.11,3.11,0,0,0-.52-1.77,16.64,16.64,0,0,1-2.69-8.57,17.19,17.19,0,0,1,4.39-12.09A22.76,22.76,0,0,1,26.85,12.2a26,26,0,0,1,17.31,1.25,21.61,21.61,0,0,1,9.31,7.48,2.61,2.61,0,0,1,.63,2.4,2.47,2.47,0,0,1-4.25.92c-.19-.2-.35-.41-.53-.62C45,17.76,38.91,15.95,31.94,16.31A19.28,19.28,0,0,0,19.8,21.45Z" fill="#757159"/><circle cx="39.21" cy="48.73" r="3" fill="#b3ab88"/><path d="M47.14,37.64a29.08,29.08,0,0,1-4.07,2.63,5.78,5.78,0,0,0-1.37,1.09,2.76,2.76,0,0,0-.17,1.23,1.91,1.91,0,0,1-2.18,2.14c-1.58,0-2.35-.7-2.35-2.14V40.83a3.62,3.62,0,0,1,1.86-3.12c1.12-.6,2.28-1.23,3.44-1.86s1.86-1.51,1.86-2.49a2.74,2.74,0,0,0-1.61-2.53,7,7,0,0,0-3.12-.63,5.24,5.24,0,0,0-3.61,1.23c-.18.14-.77.91-1.83,2.28a2.6,2.6,0,0,1-2,1.26,2,2,0,0,1-1.58-.67,2.25,2.25,0,0,1-.63-1.65q0-1.68,2.11-3.9a10,10,0,0,1,7.58-2.95,10.89,10.89,0,0,1,6.25,1.79,6.37,6.37,0,0,1,3,5.51A6.15,6.15,0,0,1,47.14,37.64Z" fill="#b3ab88"/></svg>