<svg id="icon" xmlns="http://www.w3.org/2000/svg" viewBox="0 0 100 100"><title>signIn</title><path d="M91.88,77.29c-1.19-1.39-11.09-11.21-13.52-13.36-1.26-1.13-3.58-.91-5.06.33a3.54,3.54,0,0,0-.74,4.59,13,13,0,0,0,1.75,2.11c1.69,1.73,3.47,3.38,5.12,5.17S81,79,79.16,80.41c-2.07,1.6-4.31,3-7.15,3-7-.06-24.5,0-31.54,0H20c-.8,0-1.62,0-2.43,0-1.14,0-1.32-.68-1.23-1.58a3.69,3.69,0,0,1,.23-1,21.09,21.09,0,0,1,8.82-11C28.21,68,36.63,63.53,38,62.89a2,2,0,0,0,1.31-2.12c-.06-2.08-.08-4.17,0-6.24s-.84-3.07-2.54-4.74c-1.14-1.11-1.84-1.71-2.79-2.55C28.83,42.7,27.83,36.68,29,30.55,30.46,23.37,37.33,16.27,46,16.73a10.27,10.27,0,0,0,1.39,0c4.79-.34,8.73,1.77,11.91,4.94,5.25,5.22,6.89,11.57,4.53,18.75A15.47,15.47,0,0,1,57.42,49a11.28,11.28,0,0,0-2.66,2.54c-1.55,2-1,4.15,1.09,5.48,2.28,1.44,4.19.33,6-.84A22.22,22.22,0,0,0,67.16,51c3-3.78,5-7.84,5.39-12.68,0-.45.19-.89.24-1.34A28.69,28.69,0,0,0,73.13,33a32.3,32.3,0,0,0-.65-4.36A12.07,12.07,0,0,0,72,27a28.29,28.29,0,0,0-8-12.18A23.41,23.41,0,0,0,51.24,8.64a27.21,27.21,0,0,0-16,2.33c-8,3.89-12.87,10.08-14.19,18.3-.55,3.42-1,7-.33,10.35A24.38,24.38,0,0,0,27.44,52.5c.91.88,1.82,1.77,2.7,2.69,1,1.07,1,1.59-.26,2.46a25,25,0,0,1-3.52,2A33.33,33.33,0,0,0,11.61,72.4a28.62,28.62,0,0,0-4.2,13.88c-.17,4,1.33,5.37,5.26,5.37H70.9a18.24,18.24,0,0,0,12.72-4.49c.39-.35,6.3-5,7.95-6.34A2.26,2.26,0,0,0,91.88,77.29Z" fill="#757159"/></svg>