<svg id="icon" xmlns="http://www.w3.org/2000/svg" viewBox="0 0 50 50"><title>temp-postIt</title><ellipse cx="30.5" cy="34.5" rx="15.5" ry="13.82" fill="#fff9db"/><path d="M31.71,44.45a1.42,1.42,0,0,1-.71-.19L20.73,38.32a1.42,1.42,0,0,1,.2-2.55l9.72-3.72-6.4-16.71a1.42,1.42,0,0,1,.1-1.21l3.2-5.54a1.42,1.42,0,0,1,1.94-.52l16.81,9.71a1.42,1.42,0,0,1,.52,1.94l-13.87,24a1.42,1.42,0,0,1-.86.66A1.4,1.4,0,0,1,31.71,44.45Zm-7-7.09,6.47,3.74L43.65,19.53,29.29,11.23,27.14,15l6.67,17.4A1.42,1.42,0,0,1,33,34.2Z" fill="#b3ab88"/><path d="M11.41,33.58a1.42,1.42,0,0,1-1.32-.91l-7-18.26a1.42,1.42,0,0,1,.82-1.83L22,5.64a1.42,1.42,0,0,1,1.83.82l7,18.26a1.42,1.42,0,0,1-.82,1.83L11.92,33.49A1.41,1.41,0,0,1,11.41,33.58ZM6.25,14.73l6,15.61,15.49-5.93-6-15.61Z" fill="#b3ab88"/><path d="M14.34,41.23A1.42,1.42,0,0,1,13,40.32l-2.93-7.65a1.42,1.42,0,0,1,.82-1.83L29,23.9a1.42,1.42,0,0,1,1.83.82l2.93,7.65A1.42,1.42,0,0,1,33,34.2L14.85,41.14A1.42,1.42,0,0,1,14.34,41.23ZM13.24,33l1.92,5,15.49-5.93-1.92-5Z" fill="#b3ab88"/></svg>