<svg id="icon" xmlns="http://www.w3.org/2000/svg" viewBox="0 0 35 35"><title>menu-Edit</title><path d="M18,34h-12c-.65,0-1.3,0-1.94,0s-1.3-.33-1.37-1.09S3.3,31.79,4,31.68a10.37,10.37,0,0,1,1.61,0c8.31,0,16.62,0,24.93,0,1.06,0,2.83-.56,2.73,1.25S31.41,34,30.35,34C26.25,34.06,22.15,34,18,34Z" fill="#fff9db"/><path d="M24.16,29.92c-2.16,0-4.32,0-6.48,0-.81,0-1.6-.32-1.57-1.26S17,27.6,17.8,27.6q6.64,0,13.28,0c.79,0,1.63.12,1.56,1.16s-.89,1.14-1.68,1.15c-2.27,0-4.54,0-6.8,0Z" fill="#fff9db"/><path d="M3.58,27.58c.62-3.35,1.16-6.58,4-9.19,5-4.57,9.68-9.57,14.51-14.37C25,1.2,26.06,1.21,28.85,3.94c4.22,4.13,4.22,4.62.07,8.77-4.66,4.66-9.47,9.19-13.93,14-2.56,2.79-5.86,3-9.08,3.64C4.42,30.68,3.52,29.38,3.58,27.58Zm3.69.2a8.39,8.39,0,0,0,5.83-2.4q4.83-4.81,9.64-9.64c3.11-3.11,3-3-.21-6.14-1.18-1.13-1.82-1-2.86.09Q14,15.51,8.2,21.17C6.56,22.76,6.44,24.8,6.1,26.8,6,27.67,6.51,27.91,7.27,27.78Zm20-16.91a5.46,5.46,0,0,0,2.14-2c.45-.65,0-1.21-.46-1.69-.77-.75-1.55-1.5-2.29-2.28s-1.35-.77-2.19-.06c-1.7,1.45-1.78,1.75-.06,3.47C25.33,9.25,26,10.38,27.3,10.87Z" fill="#b3ab88"/></svg>