<svg id="icon" xmlns="http://www.w3.org/2000/svg" viewBox="0 0 50 50"><title>temp-todo</title><ellipse cx="30.5" cy="34.5" rx="15.5" ry="13.82" fill="#fff9db"/><path d="M39.16,26.42c0,4.4,0,8.8,0,13.2,0,2.18-.17,2.36-2.27,2.37Q25,42,13.13,42c-2.11,0-2.27-.18-2.28-2.36q0-13.2,0-26.4c0-2.11,1.73-3.16,3.66-2.26a1.61,1.61,0,0,1,.25,2.55,2.56,2.56,0,0,0-1,2.45q0,10.47,0,20.94c0,2,.06,2.11,2,2.11h18.3c2,0,2-.08,2-1.93,0-7.16,0-14.31,0-21.47a2,2,0,0,0-.84-2c-.79-.49-.68-1.34-.46-2.07s1-.72,1.61-.74c2.36-.07,2.63.17,2.63,2.54C39.16,17.74,39.16,22.08,39.16,26.42Z" fill="#b3ab88"/><path d="M24.93,16.68c-1.82,0-3.64,0-5.45,0-1.22,0-1.68-.51-1.65-1.69,0-1.82,0-3.64,0-5.45,0-1,.35-1.55,1.42-1.55Q25,8,30.69,8c1,0,1.48.48,1.47,1.51,0,1.88,0,3.75,0,5.63,0,1.13-.5,1.58-1.6,1.56C28.69,16.66,26.81,16.68,24.93,16.68Zm0-3h3c.92,0,1.2-.51,1.2-1.35S28.83,11,27.93,11q-2.9,0-5.8,0c-.87,0-1.27.38-1.29,1.27s.33,1.44,1.32,1.41S24,13.68,25,13.67Z" fill="#b3ab88"/><path d="M27.64,29.37c-1.4,0-2.8,0-4.21,0-1.09,0-1.41-.58-1.39-1.56S22.24,26,23.44,26q4.38,0,8.76,0c1.19,0,1.36.85,1.39,1.82s-.3,1.57-1.39,1.56C30.68,29.36,29.16,29.37,27.64,29.37Z" fill="#b3ab88"/><path d="M27.9,35c-1.47,0-2.93,0-4.4,0-1.05,0-1.46-.54-1.45-1.54s.17-1.82,1.38-1.83q4.4,0,8.79,0c1.2,0,1.34.89,1.36,1.85S33.16,35,32.12,35C30.71,35,29.3,35,27.9,35Z" fill="#b3ab88"/><path d="M27.74,23.74c-1.35,0-2.7,0-4,0-1.07,0-1.66-.37-1.65-1.53s.24-1.87,1.54-1.87q4.22,0,8.44,0c1.28,0,1.54.78,1.56,1.85S33,23.77,32,23.75C30.56,23.72,29.15,23.74,27.74,23.74Z" fill="#b3ab88"/><path d="M19.54,22.21c.16,1.25-.46,1.61-1.63,1.62s-1.58-.57-1.57-1.71.48-1.52,1.58-1.53S19.7,21,19.54,22.21Z" fill="#b3ab88"/><path d="M17.9,26.26c1.17-.15,1.68.33,1.68,1.56s-.44,1.66-1.64,1.64-1.6-.36-1.6-1.51S16.59,26.1,17.9,26.26Z" fill="#b3ab88"/><path d="M19.43,33.53c0,1.07-.55,1.43-1.54,1.42s-1.43-.56-1.41-1.55S17,32,18,32,19.48,32.55,19.43,33.53Z" fill="#b3ab88"/></svg>